<svg width="103" height="177" viewBox="0 0 103 177" fill="none" xmlns="http://www.w3.org/2000/svg">
<path d="M102.332 88.4922C102.332 90.4453 101.941 92.3008 101.16 94.0586C100.444 95.7513 99.2721 97.3789 97.6445 98.9414L22.5469 172.477C20.0078 174.951 16.9154 176.188 13.2695 176.188C10.9258 176.188 8.74479 175.602 6.72656 174.43C4.70833 173.258 3.08073 171.695 1.84375 169.742C0.671875 167.789 0.0859375 165.576 0.0859375 163.102C0.0859375 159.521 1.45312 156.331 4.1875 153.531L71.082 88.4922L4.1875 23.4531C1.45312 20.7188 0.0859375 17.5286 0.0859375 13.8828C0.0859375 11.474 0.671875 9.29297 1.84375 7.33984C3.08073 5.32161 4.70833 3.72656 6.72656 2.55469C8.74479 1.38281 10.9258 0.796875 13.2695 0.796875C16.9154 0.796875 20.0078 2.03385 22.5469 4.50781L97.6445 78.043C99.207 79.6055 100.379 81.2331 101.16 82.9258C101.941 84.6185 102.332 86.474 102.332 88.4922Z" fill="#888888"/>
</svg>
