<svg width="28" height="23" viewBox="0 0 28 23" fill="none" xmlns="http://www.w3.org/2000/svg">
<path d="M27.5411 11.8056C27.5411 12.3125 27.3581 12.7443 26.992 13.101L17.7409 22.3239C17.3748 22.69 16.9665 22.873 16.5159 22.873C15.9996 22.873 15.5819 22.7134 15.2627 22.3943C14.9435 22.0751 14.784 21.6808 14.784 21.2115C14.784 20.9486 14.8309 20.714 14.9248 20.5074C15.028 20.3009 15.1594 20.1179 15.319 19.9583L18.4731 16.776L23.4718 12.2139L24.1195 13.2699L18.9941 13.5656H2.37884C1.84377 13.5656 1.41196 13.4061 1.08341 13.0869C0.754862 12.7583 0.590586 12.3312 0.590586 11.8056C0.590586 11.2893 0.754862 10.8715 1.08341 10.5524C1.41196 10.2238 1.84377 10.0595 2.37884 10.0595H18.9941L24.1195 10.3412L23.4718 11.4254L18.4731 6.83505L15.319 3.65281C15.1594 3.49323 15.028 3.31018 14.9248 3.10366C14.8309 2.88775 14.784 2.65308 14.784 2.39962C14.784 1.93026 14.9435 1.536 15.2627 1.21684C15.5819 0.897678 15.9996 0.738096 16.5159 0.738096C16.7318 0.738096 16.943 0.785032 17.1495 0.878903C17.3654 0.963388 17.5719 1.10419 17.7691 1.30133L26.992 10.5101C27.3581 10.8668 27.5411 11.2986 27.5411 11.8056Z" fill="#495263"/>
</svg>
