<svg width="42" height="35" viewBox="0 0 42 35" fill="none" xmlns="http://www.w3.org/2000/svg">
<path d="M0.475601 17.4536C0.475601 16.6806 0.761907 16.0221 1.33452 15.4781L15.3778 1.43477C15.6784 1.13415 15.9862 0.919419 16.3012 0.790581C16.6304 0.647428 16.9597 0.575852 17.2889 0.575852C18.0763 0.575852 18.7133 0.819212 19.2 1.30593C19.6867 1.79265 19.9301 2.39389 19.9301 3.10966C19.9301 3.49617 19.8514 3.85405 19.6939 4.18331C19.5507 4.49824 19.3575 4.77739 19.1141 5.02075L14.3042 9.87364L6.68128 16.8738L5.69353 15.2204L13.5097 14.7909H38.8478C39.6637 14.7909 40.3222 15.0415 40.8233 15.5425C41.3243 16.0292 41.5748 16.6662 41.5748 17.4536C41.5748 18.2552 41.3243 18.9066 40.8233 19.4076C40.3222 19.8943 39.6637 20.1377 38.8478 20.1377H13.5097L5.69353 19.6868L6.68128 18.0763L14.3042 25.0335L19.1141 29.8864C19.3575 30.1298 19.5507 30.4089 19.6939 30.7239C19.8514 31.0388 19.9301 31.3967 19.9301 31.7975C19.9301 32.5133 19.6867 33.1145 19.2 33.6012C18.7133 34.088 18.0763 34.3313 17.2889 34.3313C16.6018 34.3313 15.9791 34.0522 15.4208 33.4939L1.33452 19.4291C0.761907 18.8851 0.475601 18.2266 0.475601 17.4536Z" fill="#959AA4"/>
</svg>
