<svg width="60" height="58" viewBox="0 0 60 58" fill="none" xmlns="http://www.w3.org/2000/svg">
<path d="M11.6667 56.901C11.0069 56.3976 10.6076 55.7292 10.4688 54.8958C10.3299 54.0799 10.4427 53.1337 10.8073 52.0573L16.0938 36.3542L2.60417 26.6927C1.66667 26.0156 1.00694 25.3125 0.625 24.5833C0.260417 23.8368 0.217014 23.0642 0.494792 22.2656C0.755209 21.4844 1.25 20.9115 1.97917 20.5469C2.70833 20.1649 3.64583 19.974 4.79167 19.974H21.3542L26.3802 4.27083C26.7274 3.17708 27.1962 2.34375 27.7865 1.77083C28.3767 1.18055 29.0799 0.885414 29.8958 0.885414C30.7292 0.885414 31.441 1.18055 32.0313 1.77083C32.6215 2.34375 33.0903 3.17708 33.4375 4.27083L38.4635 19.974H55C56.1632 19.974 57.1094 20.1649 57.8385 20.5469C58.5677 20.9115 59.0625 21.4844 59.3229 22.2656C59.6007 23.0642 59.5486 23.8368 59.1667 24.5833C58.8021 25.3125 58.151 26.0156 57.2135 26.6927L43.724 36.3542L49.0104 52.0573C49.375 53.1337 49.4878 54.0799 49.349 54.8958C49.2101 55.7292 48.8108 56.3976 48.151 56.901C47.474 57.4045 46.7188 57.5868 45.8854 57.4479C45.0694 57.309 44.2014 56.901 43.2813 56.224L29.8958 46.4062L16.5365 56.224C15.6163 56.901 14.7396 57.309 13.9063 57.4479C13.0903 57.5868 12.3438 57.4045 11.6667 56.901Z" fill="black"/>
</svg>
