<svg width="240" height="240" viewBox="0 0 240 240" fill="none" xmlns="http://www.w3.org/2000/svg">
<g clip-path="url(#clip0_731_4)">
<path d="M70.301 0.83974C57.533 1.44214 48.8138 3.47974 41.1914 6.47494C33.3026 9.54934 26.6162 13.6749 19.9634 20.3517C13.3106 27.0285 9.21379 33.7197 6.16099 41.6205C3.20659 49.2597 1.20499 57.9861 0.640995 70.7613C0.0769946 83.5365 -0.0478054 87.6429 0.0145946 120.23C0.0769946 152.817 0.220995 156.902 0.840195 169.704C1.44979 182.469 3.48019 191.186 6.47539 198.811C9.55459 206.7 13.6754 213.384 20.3546 220.039C27.0338 226.694 33.7202 230.781 41.6402 233.839C49.2722 236.789 58.001 238.8 70.7738 239.359C83.5466 239.918 87.6578 240.048 120.235 239.985C152.813 239.923 156.915 239.779 169.714 239.172C182.513 238.565 191.184 236.52 198.811 233.539C206.7 230.453 213.389 226.339 220.039 219.657C226.69 212.976 230.784 206.28 233.835 198.374C236.791 190.742 238.8 182.013 239.355 169.25C239.914 156.441 240.046 152.352 239.983 119.769C239.921 87.1869 239.775 83.1021 239.167 70.3053C238.56 57.5085 236.527 48.8181 233.535 41.1885C230.451 33.2997 226.335 26.6205 219.658 19.9605C212.981 13.3005 206.28 9.20854 198.377 6.16534C190.74 3.21094 182.016 1.19734 169.243 0.64534C156.471 0.0933396 152.359 -0.0482604 119.77 0.0141396C87.1802 0.0765396 83.1002 0.21574 70.301 0.83974ZM71.7026 217.771C60.0026 217.262 53.6498 215.318 49.4162 213.691C43.8098 211.531 39.8162 208.92 35.597 204.741C31.3778 200.563 28.7858 196.555 26.597 190.961C24.953 186.727 22.973 180.381 22.4258 168.681C21.8306 156.036 21.7058 152.239 21.6362 120.201C21.5666 88.1637 21.689 84.3717 22.2434 71.7213C22.7426 60.0309 24.6986 53.6709 26.3234 49.4397C28.4834 43.8261 31.085 39.8397 35.273 35.6229C39.461 31.4061 43.457 28.8093 49.0562 26.6205C53.285 24.9693 59.6306 23.0061 71.3258 22.4493C83.981 21.8493 87.773 21.7293 119.806 21.6597C151.839 21.5901 155.64 21.7101 168.3 22.2669C179.991 22.7757 186.353 24.7125 190.579 26.3469C196.188 28.5069 200.179 31.1013 204.396 35.2965C208.613 39.4917 211.212 43.4733 213.401 49.0845C215.055 53.3013 217.018 59.6445 217.57 71.3469C218.172 84.0021 218.309 87.7965 218.367 119.827C218.424 151.857 218.311 155.661 217.757 168.307C217.246 180.007 215.307 186.362 213.677 190.601C211.517 196.205 208.913 200.201 204.723 204.415C200.532 208.629 196.541 211.226 190.939 213.415C186.715 215.064 180.363 217.032 168.677 217.589C156.022 218.184 152.23 218.309 120.185 218.378C88.1402 218.448 84.3602 218.318 71.705 217.771M169.529 55.8645C169.534 58.7128 170.383 61.4957 171.97 63.8612C173.556 66.2267 175.808 68.0686 178.442 69.154C181.075 70.2394 183.971 70.5194 186.764 69.9588C189.556 69.3981 192.12 68.0219 194.13 66.0042C196.14 63.9865 197.507 61.4179 198.058 58.6233C198.608 55.8288 198.317 52.9337 197.222 50.3044C196.127 47.675 194.277 45.4295 191.906 43.8517C189.534 42.2739 186.748 41.4348 183.9 41.4405C180.082 41.4482 176.423 42.972 173.728 45.6769C171.033 48.3818 169.523 52.0463 169.529 55.8645ZM58.385 120.12C58.4522 154.152 86.0906 181.677 120.115 181.613C154.14 181.548 181.685 153.912 181.62 119.88C181.555 85.8477 153.91 58.3149 119.88 58.3821C85.8506 58.4493 58.3202 86.0925 58.385 120.12ZM79.9994 120.077C79.9837 112.165 82.3145 104.427 86.6968 97.84C91.0791 91.2532 97.3162 86.1139 104.619 83.0719C111.923 80.0298 119.964 79.2218 127.726 80.7499C135.489 82.2779 142.624 86.0735 148.229 91.6566C153.834 97.2398 157.658 104.36 159.217 112.116C160.776 119.872 159.999 127.917 156.986 135.232C153.973 142.547 148.859 148.804 142.289 153.213C135.72 157.621 127.991 159.982 120.079 159.998C114.826 160.009 109.622 158.985 104.765 156.985C99.9076 154.984 95.4918 152.047 91.7699 148.34C88.048 144.632 85.0929 140.228 83.0733 135.379C81.0537 130.529 80.0092 125.33 79.9994 120.077Z" fill="#888888"/>
</g>
<defs>
<clipPath id="clip0_731_4">
<rect width="240" height="240" fill="white"/>
</clipPath>
</defs>
</svg>
