<svg width="135" height="248" viewBox="0 0 135 248" fill="none" xmlns="http://www.w3.org/2000/svg">
<path d="M59.8867 244.023L43.9688 230.254C42.4062 228.887 41.2995 227.227 40.6484 225.273C39.9974 223.32 39.6719 221.432 39.6719 219.609V128.301C31.7292 124.655 24.8607 119.74 19.0664 113.555C13.2721 107.37 8.77995 100.339 5.58984 92.4609C2.46484 84.5182 0.902344 76.1523 0.902344 67.3633C0.902344 58.1185 2.6276 49.4596 6.07812 41.3867C9.52865 33.2487 14.3138 26.1198 20.4336 20C26.5534 13.8802 33.6497 9.1276 41.7227 5.74219C49.8607 2.29167 58.5846 0.566406 67.8945 0.566406C77.1393 0.566406 85.7982 2.29167 93.8711 5.74219C102.009 9.19271 109.138 13.9779 115.258 20.0977C121.378 26.2174 126.163 33.3464 129.613 41.4844C133.129 49.5573 134.887 58.1836 134.887 67.3633C134.887 80.2539 131.339 92.0052 124.242 102.617C117.146 113.229 107.055 121.855 93.9688 128.496L112.816 147.441C115.03 149.72 116.137 152.389 116.137 155.449C116.137 158.509 115.03 161.146 112.816 163.359L92.0156 184.16L105.883 198.027C108.096 200.241 109.236 202.878 109.301 205.938C109.366 208.997 108.259 211.667 105.98 213.945L75.8047 244.121C73.526 246.335 70.9219 247.376 67.9922 247.246C65.0625 247.116 62.3607 246.042 59.8867 244.023ZM67.8945 225.371L87.2305 205.84L74.5352 193.438V174.688L94.0664 155.547L75.707 137.09V115.02C83.7148 113.327 90.7461 110.169 96.8008 105.547C102.921 100.924 107.641 95.3255 110.961 88.75C114.346 82.1094 116.039 74.9805 116.039 67.3633C116.039 58.5091 113.858 50.4688 109.496 43.2422C105.199 35.9505 99.4049 30.1562 92.1133 25.8594C84.8216 21.5625 76.7487 19.4141 67.8945 19.4141C61.1888 19.4141 54.9062 20.651 49.0469 23.125C43.2526 25.599 38.1419 29.0495 33.7148 33.4766C29.2878 37.8385 25.8372 42.9167 23.3633 48.7109C20.8893 54.5052 19.6523 60.7227 19.6523 67.3633C19.6523 75.1107 21.2799 82.2721 24.5352 88.8477C27.7904 95.3581 32.25 100.892 37.9141 105.449C43.6432 109.941 50.1536 112.969 57.4453 114.531V215.02L67.8945 225.371ZM67.8945 65.0195C63.5326 65.0195 59.8216 63.4896 56.7617 60.4297C53.7018 57.3047 52.1719 53.5612 52.1719 49.1992C52.1719 44.8372 53.7018 41.1263 56.7617 38.0664C59.8216 35.0065 63.5326 33.4766 67.8945 33.4766C72.2565 33.4766 75.9674 35.0065 79.0273 38.0664C82.0872 41.1263 83.6172 44.8372 83.6172 49.1992C83.6172 53.5612 82.0872 57.3047 79.0273 60.4297C75.9674 63.4896 72.2565 65.0195 67.8945 65.0195Z" fill="#888888"/>
</svg>
