<svg width="224" height="214" viewBox="0 0 224 214" fill="none" xmlns="http://www.w3.org/2000/svg">
<path d="M43.5 210.879C41.026 208.991 39.5286 206.484 39.0078 203.359C38.487 200.299 38.9102 196.751 40.2773 192.715L60.1016 133.828L9.51562 97.5977C6 95.0586 3.52604 92.4219 2.09375 89.6875C0.726562 86.888 0.563802 83.9909 1.60547 80.9961C2.58203 78.0664 4.4375 75.8854 7.17188 74.4531C9.90625 73.0208 13.4219 72.3372 17.7188 72.4023L79.8281 72.793L98.6758 13.5156C99.9779 9.41406 101.736 6.28906 103.949 4.14062C106.163 1.92708 108.799 0.820312 111.859 0.820312C114.984 0.820312 117.654 1.92708 119.867 4.14062C122.081 6.28906 123.839 9.41406 125.141 13.5156L143.988 72.793L206 72.4023C210.362 72.3372 213.91 73.0208 216.645 74.4531C219.379 75.8854 221.234 78.0664 222.211 80.9961C223.253 83.9909 223.057 86.888 221.625 89.6875C220.258 92.4219 217.816 95.0586 214.301 97.5977L163.715 133.828L183.539 192.715C184.906 196.751 185.329 200.299 184.809 203.359C184.288 206.484 182.79 208.991 180.316 210.879C177.777 212.767 174.945 213.451 171.82 212.93C168.76 212.409 165.505 210.879 162.055 208.34L111.859 171.523L61.7617 208.34C58.3112 210.879 55.0234 212.409 51.8984 212.93C48.8385 213.451 46.0391 212.767 43.5 210.879ZM63.0312 184.121C63.0964 184.251 63.3242 184.186 63.7148 183.926L105.609 151.406C107.888 149.648 109.971 148.77 111.859 148.77C113.812 148.77 115.928 149.648 118.207 151.406L160.102 183.926C160.492 184.186 160.72 184.251 160.785 184.121C160.915 183.991 160.948 183.73 160.883 183.34L143.012 133.438C142.296 131.615 141.905 130.052 141.84 128.75C141.84 127.383 142.198 126.146 142.914 125.039C143.695 123.932 144.932 122.793 146.625 121.621L190.473 91.8359C190.863 91.5755 191.026 91.3477 190.961 91.1523C190.896 90.957 190.635 90.8594 190.18 90.8594L137.25 92.3242C134.32 92.4544 132.074 92.0312 130.512 91.0547C129.014 90.013 127.908 88.0599 127.191 85.1953L112.348 34.4141C112.283 33.9583 112.12 33.7305 111.859 33.7305C111.664 33.7305 111.534 33.9583 111.469 34.4141L96.625 85.1953C95.9089 88.0599 94.7695 90.013 93.207 91.0547C91.7096 92.0312 89.5286 92.4544 86.6641 92.3242L33.7344 90.8594C33.2135 90.8594 32.9531 90.957 32.9531 91.1523C32.8229 91.4128 32.9531 91.6406 33.3438 91.8359L77.1914 121.621C78.8841 122.728 80.0885 123.867 80.8047 125.039C81.5859 126.146 81.944 127.383 81.8789 128.75C81.8789 130.052 81.5208 131.615 80.8047 133.438L62.9336 183.34C62.8685 183.73 62.901 183.991 63.0312 184.121Z" fill="#888888"/>
</svg>
