<svg width="290" height="290" viewBox="0 0 290 290" fill="none" xmlns="http://www.w3.org/2000/svg">
<path d="M236.701 80.789C224.634 78.2077 213.706 71.8395 205.512 62.6127C197.317 53.3859 192.284 41.7829 191.147 29.4953V24.1665H149.519V189.37C149.494 196.684 147.177 203.805 142.895 209.735C138.613 215.664 132.581 220.102 125.646 222.426C118.711 224.75 111.222 224.843 104.232 222.692C97.2421 220.54 91.1017 216.252 86.6741 210.431C82.1777 204.512 79.6834 197.315 79.5529 189.884C79.4225 182.452 81.6627 175.172 85.9487 169.099C90.2346 163.026 96.3436 158.476 103.39 156.109C110.436 153.743 118.052 153.682 125.135 155.935V113.644C109.341 111.46 93.2585 114.268 79.1383 121.675C65.0181 129.082 53.5662 140.717 46.3844 154.953C39.2025 169.189 36.6499 185.313 39.0837 201.071C41.5174 216.829 48.8157 231.433 59.9578 242.839C70.5834 253.711 84.2077 261.17 99.0916 264.264C113.975 267.358 129.444 265.947 143.522 260.21C157.6 254.473 169.65 244.672 178.132 232.056C186.615 219.441 191.146 204.584 191.147 189.382V104.968C207.97 116.995 228.14 123.444 248.82 123.407V82.0457C244.748 82.0507 240.686 81.6295 236.701 80.789Z" fill="#888888"/>
</svg>
