<svg width="142" height="48" viewBox="0 0 142 48" fill="none" xmlns="http://www.w3.org/2000/svg">
<path d="M31.6908 44.6486C31.8027 44.6509 31.9547 44.6405 32.0623 44.663C37.4278 45.6826 42.7183 45.9884 47.9943 46.1853C50.4465 46.2766 52.8714 46.3198 55.2963 46.363C55.4841 46.3601 55.672 46.3572 55.8768 46.2732C55.4421 46.2032 55.0117 46.1129 54.5771 46.0429C45.3671 44.4286 36.4408 42.1756 27.9319 38.8256C27.5185 38.6543 27.0565 38.5362 26.5902 38.4384C21.3158 37.163 16.1684 35.6391 11.3722 33.512C8.80536 32.3602 6.45612 31.0637 4.49344 29.5309C0.810653 26.5585 -0.474618 23.5812 0.606009 20.5713C1.25656 18.7193 2.6707 17.1544 4.42652 15.7457C5.64143 14.7736 7.05879 13.9074 8.57526 13.1043C8.82871 12.9671 9.12229 12.8171 9.27239 12.6371C11.6108 9.7006 15.2228 7.4755 19.6405 5.69436C24.793 3.62312 30.6916 2.27951 37.0159 1.40594C46.8062 0.0747198 57.1056 -0.113184 67.8217 0.568987C74.1019 0.976567 80.4302 1.69039 86.7264 2.73593C95.4111 4.17667 103.909 6.14944 112.162 8.93793C118.385 11.0469 124.231 13.5213 129.423 16.6198C132.687 18.5525 135.502 20.6659 137.702 23.0311C140.051 25.5758 141.417 28.1681 141.464 30.801C141.479 32.158 141.135 33.4398 140.365 34.611C139.38 36.0966 138.215 37.5445 136.609 38.7731C134.249 40.5628 131.204 41.8702 127.771 42.8848C123.299 44.2103 118.41 45.0253 113.253 45.5092C105.881 46.2051 98.276 46.5774 90.6525 46.8612C82.3093 47.1844 73.8925 47.3229 65.4063 47.2565C58.4144 47.2074 51.4078 47.0494 44.2941 46.5093C40.4218 46.226 36.5117 45.7655 32.6423 44.9328C32.3195 44.8651 32.0325 44.8049 31.7097 44.7372C31.6781 44.7094 31.6866 44.6689 31.6908 44.6486ZM47.3167 40.3106C49.5934 40.7034 53.4609 41.3665 57.3729 41.9966C58.7127 42.2142 60.1012 42.3785 61.4307 42.4669C65.5352 42.7143 69.5619 42.7973 73.5697 42.7918C82.113 42.7644 90.4142 42.2843 98.2733 41.0557C103.85 40.1735 109.084 38.9655 113.702 37.1206C116.646 35.9399 119.265 34.5219 121.11 32.6878C122.672 31.1327 123.565 29.3738 123.359 27.321C123.134 25.1796 121.769 23.1165 119.56 21.1513C117.356 19.1658 114.604 17.4675 111.514 15.9521C106.288 13.3753 100.578 11.5007 94.6072 9.97343C88.5291 8.42363 82.4208 7.37518 76.2487 6.63066C68.1015 5.66227 60.1265 5.30116 52.3237 5.54731C43.6175 5.81554 35.3621 6.79175 27.8418 8.726C23.5686 9.81822 19.6833 11.2033 16.4389 13.1036C13.4692 14.7654 11.2905 16.7623 10.5228 19.3512C9.85048 21.6641 10.476 24.0376 12.5915 26.4486C14.1634 28.2379 16.3498 29.7753 18.8255 31.183C22.3092 33.1406 26.2135 34.6998 30.3165 36.0258C35.3308 37.6486 40.4618 38.894 47.3167 40.3106ZM85.7113 7.21916C85.7028 7.25968 85.7344 7.28747 85.7259 7.32799C86.4074 7.47092 87.0888 7.61385 87.7703 7.75679C92.0112 8.60394 96.1779 9.62594 100.254 10.9038C104.93 12.3501 109.396 14.0905 113.481 16.2165C116.653 17.876 119.451 19.7109 121.545 21.8637C124.626 25.0272 125.411 28.0688 123.896 31.0087C122.906 32.874 121.165 34.3915 118.978 35.7099C116.152 37.4018 112.776 38.682 109.11 39.7325C104.214 41.1171 98.9325 42.019 93.4106 42.6378C86.7404 43.3753 79.8282 43.6602 72.7602 43.6162C72.4247 43.6093 72.0849 43.6227 71.7493 43.6157C71.9876 43.7292 72.167 43.7668 72.3907 43.7714C76.0034 44.0426 79.6436 44.3618 83.2332 44.5647C91.9699 45.0433 100.532 45.1045 108.827 44.475C114.914 44.0172 120.707 43.1801 125.964 41.6808C129.268 40.745 132.252 39.5516 134.745 38.0224C136.766 36.7753 137.957 35.2057 138.379 33.3694C138.965 30.9327 137.985 28.4637 135.806 25.9971C133.754 23.6417 130.891 21.5815 127.614 19.7096C122.194 16.6268 116.094 14.2897 109.605 12.3787C104.386 10.8398 99.1116 9.56432 93.7333 8.60553C91.0664 8.10963 88.3867 7.67453 85.7113 7.21916ZM139.858 29.5333C139.894 29.5409 139.934 29.5281 139.934 29.5281C139.915 29.4395 139.932 29.3585 139.909 29.2902C139.63 27.5818 138.753 25.8747 137.419 24.1988C135.279 21.5499 132.323 19.2165 128.766 17.0743C124.776 14.6721 120.37 12.6481 115.65 10.8753C106.033 7.27177 96.0138 4.87421 85.7296 3.20379C80.3702 2.33357 75.0675 1.72907 69.7222 1.3272C59.0632 0.551239 48.785 0.63783 39.016 1.86774C32.4407 2.68865 26.3542 4.03517 20.9737 6.12206C17.6331 7.40987 14.7248 8.95757 12.4427 10.9116C12.3096 11.0106 12.2081 11.1374 12.0707 11.2567C12.2902 11.2816 12.4105 11.2433 12.5309 11.2051C17.5187 9.2051 23.0714 7.72548 29.0898 6.70315C46.837 3.67732 65.8481 3.73005 85.9044 6.47697C93.22 7.48248 100.442 8.93376 107.558 10.8916C113.045 12.4021 118.321 14.2067 123.284 16.4322C127.118 18.146 130.61 20.0631 133.615 22.3432C136.425 24.4768 138.57 26.746 139.622 29.23C139.744 29.3614 139.803 29.4372 139.858 29.5333ZM7.66939 14.9239C7.32295 15.1474 7.0695 15.2847 6.84766 15.4497C4.48584 17.0697 2.57329 18.8685 1.83349 21.1461C1.0937 23.4236 1.8396 25.7589 4.26753 28.1085C5.94939 29.7305 8.13816 31.078 10.6162 32.2958C13.8725 33.9095 17.429 35.1632 21.0998 36.2292C21.701 36.3976 22.2664 36.5585 22.8676 36.7269C10.4565 30.3796 4.76409 23.2415 7.66939 14.9239ZM33.7236 39.9557C33.7193 39.976 33.675 40.009 33.6707 40.0293C33.8099 40.0796 33.9808 40.1577 34.12 40.2081C37.0965 41.192 40.0985 42.0543 43.1533 42.8431C48.5901 44.2372 54.1137 45.3957 59.6609 46.263C60.239 46.3631 60.8257 46.4227 61.3892 46.414C70.192 46.3987 78.9213 46.1988 87.5642 45.875C87.752 45.8721 87.9483 45.8287 88.1362 45.8257C87.7459 45.7227 87.3787 45.688 87.0073 45.6736C80.2943 45.3656 73.5879 44.8475 66.789 44.0562C63.1343 43.6281 59.4838 43.1797 55.8352 42.901C49.7112 42.4628 43.5792 41.7055 37.4392 40.6293C36.2197 40.3735 34.9558 40.1507 33.7236 39.9557ZM24.237 8.77379C24.2412 8.75353 24.2096 8.72574 24.2139 8.70548C23.4644 8.88675 22.7149 9.06802 22.0013 9.25681C17.9202 10.3258 14.0878 11.6374 10.675 13.2697C10.3413 13.4324 9.99483 13.6559 9.83198 13.8967C8.69204 15.5827 8.04998 17.3941 8.12103 19.3763C8.22488 23.5231 10.697 27.4474 15.4973 31.1619C18.6195 33.5936 22.3986 35.5709 26.52 37.3449C27.7201 37.8716 28.9901 38.2437 30.3172 38.5221C35.8809 39.6678 41.4999 40.5502 47.0896 41.2148C47.9315 41.3068 48.7735 41.3988 49.6197 41.4705C40.8996 39.6627 39.5768 39.3641 33.6318 37.7153C29.7416 36.6244 26.0058 35.3332 22.4456 33.7403C18.8178 32.1121 15.5366 30.2605 13.0199 27.9769C10.44 25.6377 9.11171 23.2226 9.14691 20.7338C9.16459 18.6856 10.1021 16.8938 11.6767 15.2779C13.729 13.1699 16.6458 11.5816 19.9949 10.2533C21.4118 9.74662 22.8201 9.28047 24.237 8.77379Z" fill="#FFDC80"/>
</svg>
