<svg width="1153" height="1157" viewBox="0 0 1153 1157" fill="none" xmlns="http://www.w3.org/2000/svg">
<rect width="1084" height="1084" rx="190" fill="white"/>
<rect width="1084" height="1084" rx="190" stroke="black"/>
<rect x="128" y="132" width="1025" height="1025" rx="100.392" fill="#FFDC80"/>
<rect x="128" y="132" width="1025" height="1025" rx="100.392" stroke="black"/>
<rect x="45" y="45" width="994" height="994" rx="145" stroke="black" stroke-width="90"/>
<path d="M349.987 286.166C357.572 278.027 366.636 273.957 377.18 273.957C387.909 273.957 397.158 278.027 404.927 286.166L544.497 429.343C551.897 436.928 555.596 445.807 555.596 455.981C555.596 466.71 552.174 475.589 545.33 482.618C538.485 489.463 529.699 492.885 518.97 492.885C508.611 492.885 500.101 489.278 493.442 482.063L436.837 423.516L412.974 395.491L414.361 446.547V776.465C414.361 787.194 410.847 796.073 403.817 803.102C396.788 810.132 388.001 813.646 377.457 813.646C366.728 813.646 357.849 810.132 350.82 803.102C343.79 796.073 340.276 787.194 340.276 776.465V446.547L341.94 395.491L317.8 423.516L261.473 482.063C254.813 489.278 246.212 492.885 235.667 492.885C224.938 492.885 216.152 489.463 209.307 482.618C202.463 475.589 199.041 466.71 199.041 455.981C199.041 445.807 202.833 436.928 210.417 429.343L349.987 286.166ZM734.29 801.715C726.521 809.669 717.272 813.646 706.543 813.646C695.999 813.646 686.935 809.669 679.35 801.715L539.78 657.983C532.196 650.583 528.404 641.704 528.404 631.345C528.404 620.616 531.826 611.829 538.67 604.985C545.7 598.141 554.579 594.718 565.308 594.718C575.667 594.718 584.176 598.233 590.836 605.262L647.163 663.81L671.303 691.835L669.639 640.779V311.139C669.639 300.41 673.153 291.531 680.183 284.501C687.212 277.472 696.091 273.957 706.82 273.957C717.364 273.957 726.151 277.472 733.18 284.501C740.21 291.531 743.724 300.41 743.724 311.139V640.779L742.337 691.835L766.477 663.81L822.527 605.262C829.187 598.233 837.788 594.718 848.333 594.718C859.062 594.718 867.848 598.141 874.693 604.985C881.537 611.829 884.959 620.616 884.959 631.345C884.959 641.704 881.167 650.583 873.583 657.983L734.29 801.715Z" fill="black"/>
</svg>
