<svg width="664" height="664" viewBox="0 0 664 664" fill="none" xmlns="http://www.w3.org/2000/svg">
<mask id="mask0_632_15" style="mask-type:alpha" maskUnits="userSpaceOnUse" x="0" y="0" width="664" height="664">
<circle cx="332" cy="332" r="332" fill="#D9D9D9"/>
</mask>
<g mask="url(#mask0_632_15)">
<path fill-rule="evenodd" clip-rule="evenodd" d="M1447.44 -1119.33C1437.78 -1124.34 1430.21 -1126.9 1422.01 -1129.39C1408.56 -1133.49 1394.88 -1135.62 1381.46 -1139.2C1361.02 -1144.64 1340.25 -1145.63 1319.67 -1148.41C1312.96 -1149.31 1305.68 -1150.61 1298.52 -1150.17C1291.6 -1149.74 1284.48 -1149.59 1277.37 -1150.8C1276.59 -1150.93 1273.96 -1151.24 1274.63 -1147.85C1277.62 -1147.11 1280.18 -1145.66 1284.43 -1145.5C1300.52 -1144.91 1316.57 -1141.58 1332.64 -1139.65C1349.84 -1137.6 1366.84 -1134.33 1383.7 -1130.54C1392.68 -1128.52 1401.97 -1126.79 1410.87 -1124.96C1421.89 -1122.7 1433.16 -1118.16 1447.44 -1119.33M564.832 -683.33C566.539 -687.175 571.275 -686.439 571.835 -691.717C572.384 -696.957 570.471 -701.324 570.086 -706.082C569.538 -712.73 565.139 -717.415 559.705 -720.448C555.08 -723.023 558.53 -725.754 557.278 -728.744C547.881 -733.888 538.145 -738.22 525.365 -732.836C539.35 -716.434 545.321 -696.408 564.832 -683.33M1993.15 -357.597C1993.71 -331.095 2009.68 -265.761 2027.02 -249.236C2026.02 -256.699 2028.43 -263.328 2021.49 -269.235C2018.95 -271.392 2019.22 -276.286 2017.21 -279.391C2014.33 -283.856 2020.44 -286.401 2018.07 -290.974C2015.61 -295.713 2016.18 -302.204 2012.91 -306.028C2008.42 -311.276 2011.37 -316.72 2008.78 -321.742C2006.34 -326.481 2003.13 -331.869 2003.49 -336.55C2003.91 -342.045 1997.18 -346.055 2000.14 -350.93C2003.27 -356.1 1993.84 -359.095 1997.49 -363.92C1993.95 -371.528 1995.36 -380.014 1991.15 -387.568C1989.65 -390.255 1988.34 -391.892 1984.77 -390.896C1982.68 -384.313 1985.66 -377.57 1986.64 -371.565C1984.52 -368.6 1979.37 -369.751 1980.22 -365.105C1980.37 -364.768 1980.44 -364.037 1980.81 -363.848C1984.72 -361.8 1988.68 -359.843 1993.15 -357.597M2109.71 -443.065C2108.27 -427.333 2117.32 -413.66 2119.35 -398.82C2121.46 -383.452 2125.48 -368.388 2129.5 -353.34C2133.66 -337.834 2138.65 -322.486 2143.25 -307.172C2145.54 -308.748 2147.6 -311.296 2146.37 -314.401C2141.83 -325.909 2148.61 -338.378 2140.5 -349.496C2144.2 -357.18 2138.99 -364.107 2137.25 -371.403C2136.01 -376.576 2136.23 -382.05 2138.28 -385.416C2133.91 -391.718 2131.89 -396.662 2131.91 -403.214C2131.92 -408.623 2127.23 -414.018 2128.6 -419.948C2118.73 -420.494 2118.27 -421.433 2120.54 -434.03C2118.53 -434.651 2116.83 -432.16 2113.43 -434.901C2112.55 -436.841 2111.13 -439.954 2109.71 -443.065M1499.72 -310.187C1485.16 -337.865 1467 -362.972 1448.13 -387.593C1425.43 -417.244 1401.88 -446.348 1378.92 -475.84C1376.35 -479.149 1373.9 -480.528 1369.41 -480.068C1408.92 -422.65 1452.16 -368.275 1494.16 -313.101C1495.27 -311.637 1497.84 -311.133 1499.72 -310.187M221.198 298.687C223.914 305.877 225.908 312.709 229.061 319.085C232.148 325.346 232.774 332.057 235.614 338.484C239.42 347.083 245.171 354.777 248.234 363.657C254.304 381.271 263.352 397.786 271.911 414.541C285.327 440.795 302.971 464.634 319.642 489.048C323.48 494.672 328.23 499.773 332.564 505.118C298.004 435.901 255.76 370.361 225.437 299.678C225.228 299.195 223.534 299.207 221.198 298.687M2070.81 450.929C2075.76 452.171 2078.69 452.915 2081.63 453.654C2078.35 461.153 2090.72 461.733 2089.3 469.776C2086.09 477.456 2080.19 485.579 2079.63 496.029C2079.36 500.844 2081.02 501.225 2084.88 500.847C2088.03 494.213 2092.93 488.227 2091.08 480.752C2094.01 478.237 2096.77 482.296 2099.16 479.879C2103.43 471.384 2110.36 463.163 2111.45 453.953C2112.64 443.773 2118.14 436.354 2121.77 427.783C2125.54 418.877 2130.35 410.41 2134.7 401.748C2135.84 399.471 2137.09 397.241 2138.07 394.892C2138.4 394.09 2138.05 392.989 2138.01 392.024C2135.68 390.797 2133.67 388.783 2130.76 389.039C2130.11 398.826 2129.81 398.404 2121.78 401.237C2117.54 402.729 2117.3 398.748 2115.21 398.345C2109.03 397.135 2108.95 404.094 2104.95 405.417C2101.87 407 2100.11 400.605 2096.46 404.4C2100.18 408.655 2108.82 408.448 2108.05 416.503C2100.67 421.894 2100.67 421.894 2106.41 430.827C2110.03 432.934 2109.28 425.758 2113.7 428.099C2111.48 431.227 2113 436.88 2105.43 434.291C2103.18 433.524 2099.22 438.134 2097.41 439.364C2095.56 442.402 2099.17 444.258 2096.59 445.684C2092.35 448.016 2087.89 446.152 2083.88 446.422C2082.12 443.563 2082.46 440.281 2080.03 438.527C2074.76 441.474 2080.92 446.05 2077.4 448.801C2076.09 449.222 2074.6 449.701 2070.81 450.929M1737.7 174.574C1727.35 168.851 1722.45 158.215 1713.72 151.049C1702.99 142.25 1693.01 132.659 1682.46 123.649C1673.45 115.962 1664.88 107.924 1655.24 100.819C1645.36 93.5341 1637.08 84.3303 1627.5 76.4806C1617.58 68.3562 1607.23 60.5339 1598.13 51.5581C1593.04 46.5223 1588.25 41.3489 1582.48 36.9213C1575.95 31.9316 1569.24 26.8075 1564.08 20.6625C1558.83 14.4175 1548.69 12.5641 1547.15 2.98892C1546.78 0.675555 1543.09 -0.199232 1540.47 -0.697421C1539.15 -0.941488 1536.64 -0.313613 1536.56 -0.548972C1533.57 -9.29427 1523.79 -11.5343 1517.97 -18.793C1517.2 -15.8947 1515.91 -14.6759 1518.89 -11.8593C1532.58 1.06417 1545.47 14.7604 1559.27 27.5701C1564.11 32.068 1568.05 38.0256 1575.03 40.1805C1583.51 52.5943 1596.64 60.7439 1608.13 69.7704C1619.94 79.0561 1631.17 89.1529 1642.49 98.7745C1667.49 120.038 1693.61 140.187 1717.08 163.079C1725.03 165.101 1727.57 175.41 1737.7 174.574M1131.21 977.182C1126.86 977.059 1122.44 976.033 1118.96 977.185C1117.04 977.82 1116.44 980.067 1112.87 979.273C1098.4 976.063 1083.84 972.891 1069.23 971.177C1061.75 970.299 1054.3 967.458 1046.51 969.226C1025.68 973.97 1004.68 978.21 983.739 982.582C981.77 982.991 980.087 984.531 977.626 983.282C974.193 981.544 971.425 983.937 968.532 984.757C966.004 985.476 962.515 985.102 960.195 989.162C985.205 991.39 1008.81 990.749 1032.36 989.756C1054.72 988.806 1077.04 987.559 1099.29 985.857C1109.42 985.081 1119.54 985.385 1129.69 985.383C1130.99 985.378 1132.24 984.48 1132.99 984.196C1132.37 981.757 1131.85 979.722 1131.21 977.182M679.118 -197.938C681.005 -204.237 674.208 -205.808 672.861 -210.596C671.53 -215.332 669.035 -219.929 666.314 -224.526C656.037 -241.887 647.289 -260.021 638.127 -277.929C631.529 -290.846 625.198 -304.064 617.927 -316.457C610.641 -328.876 605.137 -342.081 597.193 -354.114C589.656 -365.544 587.065 -379.458 575.752 -388.964C567.522 -384.99 565.007 -380.04 569.214 -371.478C575.296 -359.097 582.335 -347.085 589.209 -335.03C594.008 -326.625 599.898 -318.691 604.091 -310.074C612.346 -293.081 623.257 -277.417 633.522 -261.555C645.941 -242.376 658.443 -223.224 670.619 -203.915C672.919 -200.278 675.239 -198.515 679.118 -197.938M2063.78 -206.872C2060.61 -214.992 2061.72 -223.194 2061.23 -231.412C2060.65 -241.131 2058.44 -250.854 2057.57 -260.588C2057.25 -264.278 2050.88 -266.376 2054.44 -270.696C2043.78 -285.18 2040.56 -301.595 2037.3 -318.3C2039.34 -319.337 2041.01 -320.18 2042.59 -320.971C2041.88 -322.986 2041.19 -324.986 2040.51 -326.923C2038.96 -326.56 2037.49 -326.226 2036.07 -325.893C2033.49 -329.463 2040.2 -331.697 2036.67 -335.473C2035.15 -334.159 2033.71 -332.917 2032.27 -331.665C2023.43 -336.664 2023.38 -336.676 2025.44 -345.245C2025.84 -346.931 2025.67 -348.164 2023.89 -349.027C2021.63 -350.618 2019.81 -348.91 2017.83 -348.689C2015.19 -351.877 2017.14 -358.639 2010.55 -358.452C2009.2 -348.177 2014.77 -339.424 2017.01 -330.175C2019.61 -319.423 2021.39 -308.546 2024.73 -297.831C2027.96 -287.475 2031.08 -277.035 2033.81 -266.64C2036.89 -254.921 2038.24 -242.862 2042.74 -231.338C2044.29 -227.361 2047.26 -223.131 2046.9 -219.429C2046.41 -214.478 2048.4 -210.484 2049.87 -206.18C2051.44 -201.571 2053.28 -197.032 2054.91 -192.725C2062.85 -195.515 2054.14 -206.032 2063.78 -206.872M2377.63 93.1222C2380.95 91.451 2381.84 88.8301 2381.86 85.6429C2381.95 72.1887 2383.87 58.8963 2385.09 45.6519C2387.27 21.7849 2387.76 -2.1425 2387.8 -26.1284C2387.89 -67.1007 2386.12 -108.146 2381.65 -149.204C2379.74 -166.748 2377.57 -184.308 2374.59 -201.776C2371.4 -220.467 2366.69 -239.021 2363.4 -257.708C2360.26 -275.642 2354.5 -293.104 2350.49 -310.867C2347.12 -325.797 2340.34 -340.07 2338.42 -355.295C2338.04 -358.327 2336.35 -361.317 2335.11 -364.281C2333.89 -367.199 2333.37 -370.55 2331.32 -372.798C2327.84 -370.646 2328.53 -368.682 2329.42 -366.638C2333.38 -357.489 2335.37 -347.673 2337.12 -338.375C2341.34 -316.038 2348.27 -294.221 2353.13 -272.049C2355.74 -260.201 2359.6 -248.248 2361.05 -236.564C2364.32 -210.252 2369.5 -184.099 2372.64 -157.756C2376.85 -122.335 2378.24 -86.9989 2381.36 -51.6362C2382.1 -43.2488 2379.7 -35.3468 2380.45 -27.2349C2382.12 -9.32901 2382.77 8.55268 2380.84 26.119C2379.38 39.4397 2380.89 52.9484 2378.56 66.3212C2377.11 74.5856 2375.99 83.9016 2377.63 93.1222M153.919 663.725C152.902 661.206 152.141 659.306 151.369 657.388C147.447 659.126 143.39 657.352 139.566 657.672C134.736 653.097 145.222 649.067 139.157 644.571C136.111 644.363 136.707 649.202 133.069 648.104C127.533 646.361 125.893 641.042 122.367 637.558C122.841 635.038 125.844 633.455 124.45 630.381C120.265 631.023 116.11 631.322 113.477 626.945C108.258 618.247 98.8747 611.838 96.6843 601.507C95.8835 597.755 90.8203 596.596 90.8078 592.553C82.826 590.891 80.5682 583.863 76.7909 578.54C64.4392 561.145 51.8147 543.871 40.5163 525.903C25.5193 502.047 10.4468 478.096 -2.25737 453.214C-11.0224 436.053 -21.5172 419.383 -27.2865 401.008C-28.1886 398.124 -30.113 396.88 -32.4865 397.904C-10.7261 471.292 31.3743 535.01 80.136 595.659C77.3315 596.385 74.4667 596.645 74.3803 600.109C78.1785 604.737 82.6777 609.114 85.7253 614.203C89.493 620.497 94.3091 622.923 100.483 621.096C104.753 626.691 108.375 631.439 111.731 635.833C110.852 638.181 108.934 640.8 109.648 641.788C114.721 648.789 117.913 657.766 128.701 659.163C125.166 665.068 131.904 667.466 132.707 671.565C138.857 671.841 137.915 681.945 146.293 680.275C152.27 679.085 155.6 683.163 155.03 689.236C153.979 689.532 152.954 689.83 151.496 690.243C156.232 692.025 154.927 699.057 160.614 699.383C164.294 698.412 158.053 694.237 163.671 694.006C169.84 700.745 177.242 707.33 182.526 715.135C186.056 720.34 189.922 721.54 195.977 723.147C191.592 716.952 185.559 713.058 186.457 706.061C183.429 706.919 180.693 708.296 178.481 703.816C176.462 699.741 178.29 697.001 179.581 693.752C180.051 692.585 178.931 691.795 177.914 692.078C176.507 693.354 175.097 694.635 173.022 696.52C164.91 685.883 155.488 676.653 149.345 665.035C150.925 664.582 151.947 664.29 153.919 663.725M152.747 510.802C151.748 497.31 143.677 487.5 139.443 476.639C135.808 467.32 130.362 458.136 125.514 449.026C120.278 439.179 117.132 428.708 111.958 419.05C104.303 404.783 96.5775 390.613 90.9891 375.577C89.5124 371.593 88.9346 366.826 86.2055 363.824C78.8612 355.751 78.0695 345.669 74.0593 336.634C70.0403 327.575 63.5003 319.548 61.1399 309.786C60.5158 307.206 61.8645 305.107 59.7414 301.742C51.0297 287.876 48.7372 271.436 39.2735 257.652C41.2269 251.67 35.0039 248.058 33.6158 242.972C32.2094 237.814 29.9059 232.822 27.819 227.29C21.3973 232.33 27.0325 236.799 27.4616 240.855C29.3253 258.678 33.0027 276.456 38.5964 293.78C49.5288 327.67 64.278 360.411 80.8271 392.414C84.9344 400.358 87.7345 408.742 92.1227 416.399C107.092 442.527 122.565 468.429 138.343 494.157C141.828 499.831 145.865 505.726 152.747 510.802M-135.076 -250.098C-142.018 -246.987 -141.231 -242.474 -140.226 -237.782L-130.06 -232.673C-133.767 -224.166 -121.572 -220.374 -121.802 -210.938C-121.984 -203.191 -117.01 -195.012 -114.354 -187.117C-110.375 -186.767 -110.732 -192.367 -106.015 -191.225C-108.121 -198.038 -113.14 -204.59 -107.871 -211.173L-114.911 -214.71C-113.731 -220.879 -116.872 -226.449 -119.018 -232.162C-121.056 -237.574 -118.029 -244.428 -125.104 -248.398C-121.133 -254.613 -129.53 -258.455 -129.515 -264.429C-129.491 -269.782 -132.907 -275.389 -134.959 -280.84C-137.129 -286.615 -140.956 -292.07 -142.919 -297.495C-144.899 -302.967 -148.579 -307.914 -149.616 -313.548C-150.697 -319.449 -149.9 -326 -154.567 -330.763C-159.57 -335.877 -160.2 -341.439 -160.083 -347.739C-170.672 -350.415 -167.608 -357.722 -165.793 -364.599C-168.047 -363.949 -169.077 -363.655 -170.147 -363.349C-173.641 -365.318 -169.004 -367.541 -170.837 -369.727C-175.841 -375.698 -181.783 -381.826 -182.698 -389.187C-183.717 -397.456 -188.892 -403.903 -191.669 -411.312C-202.585 -440.446 -212.893 -469.715 -222.174 -499.262C-222.804 -501.272 -224.564 -503.523 -224.15 -505.204C-221.68 -515.22 -227.707 -523.928 -229.951 -533.241C-232.377 -543.294 -237.141 -553.143 -238.399 -562.949C-240.282 -577.715 -242.355 -592.25 -247.935 -605.902C-246.311 -607.353 -244.022 -606.385 -244.061 -607.626C-246.693 -615.528 -251.998 -623.32 -250.614 -629.311C-248.746 -637.382 -253.503 -642.455 -254.693 -651.118C-259.754 -637.36 -259.754 -637.36 -255.892 -626.724C-261.593 -624.18 -256.776 -616.15 -263.067 -612.99C-258.261 -609.101 -250.551 -606.26 -255.742 -598.555C-256.762 -597.04 -256.482 -595.382 -255.509 -594.244C-248.255 -585.801 -250.04 -575.529 -247.811 -566.186C-246.055 -558.812 -243.345 -550.467 -248.984 -544.373C-243.002 -537.753 -240.513 -531.333 -240.192 -524.233C-242.422 -523.509 -243.91 -523.022 -245.667 -522.451C-242.665 -518.959 -239.695 -515.496 -236.645 -511.949C-238.861 -507.118 -238.329 -501.783 -237.899 -496.41L-232 -493.445C-233.501 -488.703 -231.211 -484.392 -229.346 -480.187C-227.626 -476.319 -229.914 -472.066 -225.309 -468.103C-222.039 -465.295 -221.612 -459.438 -219.923 -454.951C-220.746 -451.504 -224.131 -448.779 -223.353 -443.88C-221.008 -445.869 -219.554 -447.103 -216.348 -449.823C-219.766 -442.355 -213.46 -439.18 -211.957 -434.269C-209.479 -426.155 -206.069 -418.252 -203.056 -410.265C-195.898 -409.52 -203.404 -403.029 -198.189 -400.73C-192.133 -398.064 -201.791 -394.16 -197.644 -390.81C-196.191 -391.05 -194.848 -391.275 -196.14 -391.055C-192.334 -381.002 -188.803 -371.666 -185.264 -362.332C-183.916 -359.885 -189.866 -362.422 -188.169 -358.849C-185.88 -352.876 -179.201 -362.156 -177.369 -355.015C-177.683 -352.881 -181.528 -354.75 -181.039 -351.589C-179.366 -349.067 -174.648 -349.643 -173.895 -345.714C-176.54 -345.28 -179.24 -344.83 -179.364 -343.305C-179.47 -339.599 -177.688 -339.132 -176.254 -338.436C-169.881 -335.354 -164.91 -331.427 -165.649 -323.89C-159.596 -320.741 -163.091 -314.929 -160.8 -310.605C-158.299 -305.872 -157.84 -300.12 -154.835 -295.789C-145.139 -281.8 -142.593 -265.649 -135.076 -250.098M358.176 898.718C353.518 901.308 349.049 898.477 346.284 895.846C328.757 879.188 308.818 865.208 290.765 849.079C281.274 840.601 270.895 832.282 259.901 825.12C251.194 819.448 245.007 811.031 236.338 805.076C227.009 798.669 219.554 789.999 210.581 782.953C203.014 777.01 197.709 768.74 190.117 762.413C179.116 753.252 168.884 743.2 158.83 733.066C152.401 726.587 144.883 720.763 140.975 712.396C139.949 710.193 137.95 709.56 136.53 708.128C130.442 702.003 124.21 696.057 118.822 689.232C107.552 674.962 94.897 661.639 83.851 647.236C75.835 636.773 67.238 626.786 58.9369 616.564C50.9513 606.721 43.1543 596.733 35.571 586.62C17.7916 562.915 1.11596 538.537 -13.7587 513.2C-25.3978 493.38 -35.3593 472.86 -44.7008 451.991C-52.2632 435.075 -60.3692 418.29 -65.5296 400.825C-69.6705 386.812 -75.9347 373.163 -78.6983 359.143C-81.3025 345.922 -84.6774 332.698 -87.6131 319.606C-94.3994 289.285 -99.8807 258.884 -104.156 228.396C-106.674 210.445 -108.809 192.347 -111.614 174.479C-114.904 153.522 -115.695 132.516 -118.917 111.561C-120.798 99.2953 -121.043 86.4534 -122.122 73.9361C-123.166 61.8135 -122.433 49.7464 -124.272 37.6403C-126.104 25.5497 -125.995 13.308 -126.533 1.33308C-127.031 -9.92981 -130.29 -22.0254 -126.015 -33.131C-131.837 -41.7297 -127.342 -50.6343 -128.033 -59.3243C-128.719 -67.9297 -128.821 -76.8271 -130.043 -85.3306C-131.304 -94.0987 -132.339 -103.056 -133.336 -111.749C-135.353 -129.403 -139.117 -146.872 -141.168 -164.418C-142.421 -175.134 -146.953 -184.898 -149.126 -195.264C-153.263 -214.997 -159.824 -234.545 -168.013 -253.532C-171.293 -261.137 -173.978 -269.015 -174.774 -277.033C-175.389 -283.141 -181.226 -286.257 -182.79 -291.916C-185.314 -301.068 -189.426 -309.915 -192.676 -318.94C-193.759 -321.94 -194.933 -324.689 -198.364 -325.765C-197.275 -328.762 -196.447 -331.048 -195.679 -333.161C-196.866 -336.39 -198.316 -332.824 -200.052 -333.967C-201.748 -337.571 -204.526 -341.114 -203.846 -345.746C-203.21 -350.099 -208.425 -351.894 -209.422 -356.085C-211.602 -365.214 -221.765 -372.248 -219.248 -382.833C-226.17 -389.61 -228.278 -398.704 -232.886 -406.604C-235.195 -410.566 -236.742 -415.077 -235.637 -419.779C-234.68 -423.819 -243.216 -425.099 -239.736 -430.024C-250.486 -442.352 -250.508 -457.896 -254.525 -471.827C-260.962 -494.165 -269.186 -516.28 -271.746 -539.572C-273.028 -551.222 -277.886 -563.195 -279.432 -575.054C-282.896 -601.716 -288.265 -628.314 -288.366 -655.155C-288.411 -666.247 -291.06 -677.501 -290.997 -688.576C-290.876 -712.076 -290.78 -735.608 -288.753 -758.943C-288.37 -763.31 -288.861 -767.787 -285.896 -771.675C-282.718 -775.851 -287.661 -780.35 -287.072 -785.236C-286.385 -791.023 -282.789 -795.733 -283.172 -802.165C-283.386 -805.71 -281.255 -810.753 -281.49 -814.87C-282.263 -828.241 -274.895 -839.883 -275.998 -853.25C-276.41 -858.305 -273.052 -862.744 -271.262 -867.014C-265.18 -881.524 -266.603 -898.333 -258.403 -911.905C-253.91 -919.337 -252.21 -927.399 -252.049 -935.812C-251.995 -938.517 -252.08 -941.355 -250.356 -942.731C-244.319 -947.523 -244.252 -955.083 -241.594 -961.297C-238.749 -967.939 -238.433 -975.613 -234.588 -982.136C-230.705 -988.735 -225.567 -995.422 -224.606 -1002.72C-222.883 -1015.8 -215.737 -1026.06 -210.281 -1037.17C-207.549 -1042.73 -207.147 -1050.06 -199.204 -1052.66C-195.029 -1054.03 -203.071 -1060.99 -196.076 -1062.67C-191.926 -1063.66 -191.378 -1066.88 -191.574 -1070.95C-191.754 -1074.67 -184.755 -1075.38 -185.811 -1079.41C-186.842 -1083.38 -186.531 -1088.83 -184.233 -1088.93C-178.467 -1089.17 -182.718 -1096.12 -177.931 -1095.98C-177.547 -1095.97 -176.985 -1096.47 -176.85 -1096.86C-172.319 -1109.8 -160.708 -1118.36 -155.472 -1131.08C-152.413 -1138.52 -146.696 -1145.23 -140.754 -1150.9C-135.054 -1156.35 -130.676 -1162.76 -126.231 -1168.83C-118.497 -1179.42 -107.581 -1187.11 -100.035 -1197.69C-97.9881 -1200.55 -89.3443 -1197.15 -92.3967 -1204.93C-86.8389 -1205.29 -87.2904 -1210.73 -84.5072 -1213.31C-82.4418 -1215.25 -78.9357 -1215.78 -75.2583 -1217.26C-72.6853 -1224.03 -66.4676 -1228.39 -60.3048 -1233.55C-48.5078 -1243.44 -36.263 -1252.75 -23.2562 -1260.98C-5.3743 -1272.3 12.124 -1284.63 33.5742 -1290.1C37.9933 -1291.22 37.1267 -1295.78 40.8502 -1297.17C62.505 -1305.25 83.0586 -1315.47 106.583 -1319.72C116.429 -1321.51 125.726 -1326.83 135.802 -1328.74C156.036 -1332.57 175.392 -1339 196.679 -1340.01C209.313 -1340.61 222.116 -1343.15 234.981 -1344.07C261.693 -1345.99 288.517 -1346.94 315.492 -1342.7C335.664 -1339.54 355.882 -1336.78 375.917 -1332.07C382.807 -1330.46 388.954 -1326.68 395.376 -1325.79C402.032 -1324.86 407.736 -1322.73 413.287 -1319.64C417.682 -1317.19 422.477 -1319.93 427.051 -1316.59C430.622 -1313.98 434.713 -1310.95 440.549 -1312.42C443.222 -1313.09 447.369 -1309.47 450.834 -1307.75C455.804 -1305.28 461.272 -1303.39 465.557 -1300.08C469.078 -1297.36 475.267 -1301.52 476.657 -1295.02C482.646 -1297.43 486.821 -1292.6 491.645 -1290.6C496.239 -1288.68 500.601 -1286.18 505.065 -1283.94L519.951 -1276.46C524.41 -1274.22 528.75 -1270.71 533.369 -1270C542.284 -1268.64 549.162 -1262.82 557.704 -1260.44C567.088 -1257.83 575.819 -1252.16 584.551 -1247.33C592.171 -1243.11 601.111 -1243.99 608.678 -1238.99C616.025 -1234.14 624.158 -1228.89 632.434 -1227.35C641.782 -1225.61 649.342 -1218.89 657.825 -1218.26C667.939 -1217.53 674.491 -1210.05 683.278 -1208.31C702.449 -1204.51 720.093 -1195.12 738.833 -1191.02C762.486 -1185.85 785.509 -1177.95 809.456 -1173.84C825.042 -1171.16 840.748 -1168.94 856.334 -1166.25C871.778 -1163.59 887.671 -1163.86 903.313 -1163.71C922.88 -1163.53 942.157 -1165.47 961.348 -1168.28C980.61 -1171.11 998.992 -1176.72 1018.11 -1179.83C1026.81 -1181.25 1034.95 -1184.18 1043.8 -1185.35C1053.34 -1186.61 1062.1 -1191.45 1071.63 -1192.75C1095.47 -1195.99 1117.57 -1205.44 1142.08 -1206.1C1170.62 -1215.13 1201.47 -1214.29 1230.95 -1219.41C1245.63 -1221.96 1261.32 -1220.55 1276.53 -1221.14C1301.78 -1222.12 1327.12 -1220.67 1352.48 -1219.44C1375.79 -1218.31 1398.95 -1215.2 1422.06 -1211.18C1438.68 -1208.3 1455.21 -1204.65 1471.86 -1202.06C1478.61 -1201.01 1484.11 -1194.95 1491.4 -1197C1505.08 -1189.5 1521.31 -1190.01 1534.84 -1182.04C1545.07 -1182.18 1553.37 -1176.52 1561.66 -1171.74C1568 -1168.1 1575.22 -1170.33 1581.43 -1165.78C1587.13 -1161.59 1594.05 -1157.05 1600.64 -1156.3C1612.63 -1154.93 1621.86 -1148.28 1631.96 -1143.4C1655.45 -1132.04 1678.78 -1120.34 1701.88 -1108.22C1709.47 -1104.24 1718.6 -1102.62 1724.16 -1095.08C1729.05 -1088.47 1739.24 -1089.15 1743.81 -1081.66C1745.48 -1078.93 1749.16 -1082.4 1752.05 -1079.91C1757.66 -1075.07 1766.26 -1075.04 1770.89 -1067.74C1774.47 -1062.08 1784.05 -1063.13 1787.41 -1055.71C1789.44 -1051.23 1798.97 -1058.05 1799.35 -1049.15C1808.23 -1046.14 1814.67 -1039.56 1822.01 -1034.29C1828.08 -1029.94 1836.27 -1029.35 1841.06 -1022.34C1845.14 -1016.36 1855.57 -1017.24 1858.46 -1009.12C1869.31 -1006.16 1875.59 -996.47 1885.49 -991.767C1892.94 -988.226 1899.56 -982.586 1905.97 -977.237C1915.9 -968.954 1926.08 -960.92 1936.41 -953.155C1940.21 -950.285 1943.57 -947.195 1946.98 -944.034C1948.87 -942.283 1948.8 -939.524 1951.75 -938.071C1970.41 -928.88 1984.42 -913.911 1999.04 -900.173C2007.84 -891.903 2017.63 -884.202 2025.11 -874.366C2027.15 -871.691 2032.18 -869.304 2033.76 -865.901C2038.42 -855.885 2047.5 -849.456 2055.08 -842.058C2059.27 -837.975 2062.87 -833.944 2065.67 -829.104C2066.21 -828.186 2066.16 -826.572 2066.86 -826.205C2080.05 -819.343 2085.93 -806.388 2094.87 -796.07C2103.51 -786.105 2110.33 -774.706 2119.21 -764.955C2137.12 -745.293 2150.56 -722.709 2167.61 -702.511C2173.18 -695.923 2177.37 -688.31 2180.97 -682.962C2185.15 -678.957 2187.62 -682.899 2191.16 -680.327C2194.22 -677.976 2194.03 -674.112 2193.05 -669.303C2204.85 -665.722 2208.15 -654.553 2214.03 -646.003C2227.95 -625.789 2241.01 -605.007 2253.2 -583.885C2261.21 -569.987 2269.55 -556.271 2275.92 -541.429C2296.09 -494.404 2314.37 -446.823 2331.3 -398.888C2337.75 -380.617 2344.33 -362.263 2349.78 -343.75C2354.42 -328.015 2359.19 -312.169 2362.76 -296.323C2371.1 -259.264 2379.42 -222.173 2384.86 -184.71C2389.02 -156.069 2391.36 -127.446 2393.77 -98.7747C2395.33 -80.4022 2396.01 -62.1129 2395.94 -43.793C2395.84 -14.5045 2395.09 14.6725 2393.58 43.8645C2392.15 71.3108 2384.54 97.5445 2384.67 125.087C2377.21 140.027 2380.75 158.086 2372.74 172.863C2374.27 181.592 2369.54 189.001 2367.49 196.703C2365.38 204.62 2365.41 213.515 2360.18 220.707C2357.79 223.99 2360.41 229.366 2357.45 233.356C2354.98 236.677 2352.77 240.574 2354.06 245.309C2347.71 246.287 2353.75 251.948 2350.54 254.904C2347.31 257.872 2344.62 262.7 2344.38 267.025C2343.79 277.627 2335.45 285.381 2334.51 294.869C2333.5 305.163 2325.98 312.049 2324.65 321.238C2323.03 332.519 2312.75 338.637 2310.14 349.014C2309.9 349.929 2307.41 350.181 2305.95 350.75C2305.83 353.18 2308.71 353.393 2310.28 355.742C2306.88 357.874 2302.65 359.437 2300.16 362.372C2297.24 365.816 2295.82 370.438 2293.42 375.224C2295.27 378.997 2297.39 383.277 2299.24 387.026C2295.05 391.787 2294.96 397.078 2290.06 400.386C2287.92 401.829 2287.58 407.866 2286.47 411.821C2285.02 416.997 2277.14 418.24 2277.94 422.836C2279 428.962 2275.63 432.574 2273.51 436.843C2253.71 476.689 2233.73 516.445 2213.59 556.116C2211.43 560.366 2211.14 566.353 2204.58 567.465C2209.69 575.482 2198.96 575.009 2197.67 579.974C2196.5 584.533 2192.51 587.892 2189.16 591.554C2183.44 597.794 2181.04 606.772 2176.88 614.405C2174.09 619.507 2172.59 625.086 2166.52 628.622C2161.68 631.443 2160.75 638.316 2156.55 642.954C2151.48 648.544 2145.56 654.22 2142.13 661.361C2139.8 666.195 2137.62 670.858 2132.4 674.127C2128.52 676.559 2129.59 684.035 2122.9 684.909C2118.8 694.535 2110.29 700.777 2103.76 708.549C2088.04 727.252 2070.84 744.569 2052.78 761.17C2037.65 775.084 2022.78 789.258 2007.51 803.016C2002.55 807.477 1997.35 811.799 1992.07 815.861C1973.07 830.502 1954.35 845.749 1933.69 858.14C1915.28 869.174 1897.42 881.072 1878.39 891.338C1868.28 896.795 1859.29 904.389 1849.31 910.41C1825.79 924.59 1801.86 938.1 1777.11 950.403C1755.41 961.189 1734.03 972.554 1710.06 979.109C1703.76 980.827 1698.12 984.309 1691.94 986.423C1684.9 988.824 1676.98 989.608 1670.58 992.92C1662.25 997.236 1652.86 998.903 1644.57 1002.75C1638.14 1005.73 1629.99 1000.93 1624.31 1007.85C1620.18 1012.87 1610.02 1007.98 1604.91 1013.77C1594.6 1011.4 1587.88 1019.92 1577.61 1019.86C1567.68 1019.81 1558.07 1024.82 1548.32 1027.62C1538.55 1030.41 1529.03 1034.29 1518.95 1035.77C1500.41 1038.49 1483.33 1045.59 1465.13 1048.64C1447.77 1051.55 1431.25 1058.14 1413.15 1057.56C1408.87 1057.42 1408.87 1060.98 1405.76 1061.69C1402.5 1062.43 1399.54 1060.6 1396.51 1061.64C1384.24 1065.87 1371.26 1067.9 1358.39 1070.15C1340.1 1073.35 1321.62 1076.07 1303.42 1079.4C1275.12 1084.58 1246.45 1087.02 1217.69 1089.31C1198.95 1090.79 1180.11 1091.64 1161.3 1092.67C1139.46 1093.88 1117.65 1095.26 1095.77 1096.01C1079.09 1096.57 1062.29 1096.07 1045.6 1096.45C1032.36 1096.75 1019.16 1097.55 1005.98 1098.36C987.745 1099.49 969.405 1099.99 951.224 1101C925.345 1102.44 899.494 1102.08 873.576 1100.76C860.513 1100.1 847.383 1099.52 834.159 1097.25C825.866 1095.83 816.875 1094.78 808.517 1094.54C791.429 1094.04 775.233 1089.24 758.636 1086.33C752.798 1085.31 747.544 1082.96 742.071 1081.66C736.944 1080.45 732.076 1078.82 727.06 1077.38C712.047 1073.06 697.696 1066.13 682.068 1064.24C681.057 1064.11 679.936 1063.81 679.081 1063.27C664.259 1053.77 646.35 1051.92 631.194 1042.9C617.707 1034.86 601.241 1033.41 587.993 1024.41C577.597 1025.04 570.169 1016.95 561.013 1014.51C536.351 1007.93 515.169 993.932 492.503 983.16C469.952 972.433 447.842 960.775 425.477 949.637C409.621 941.745 396.174 930.379 381.866 920.331C378.771 918.165 376.269 914.263 372.286 912.627C365.477 909.842 361.068 905.013 358.176 898.718" fill="#FFDC80"/>
</g>
</svg>
