<svg width="202" height="185" viewBox="0 0 202 185" fill="none" xmlns="http://www.w3.org/2000/svg">
<path d="M33.977 184.668C23.1754 184.668 14.9441 181.87 9.28307 176.274C3.68709 170.743 0.889096 162.642 0.889096 151.971V33.3815C0.889096 22.7101 3.68709 14.6089 9.28307 9.07802C14.9441 3.48204 23.1754 0.684054 33.977 0.684054H168.964C179.765 0.684054 187.964 3.48204 193.56 9.07802C199.156 14.6089 201.954 22.7101 201.954 33.3815V151.971C201.954 162.642 199.156 170.743 193.56 176.274C187.964 181.87 179.765 184.668 168.964 184.668H33.977ZM34.5626 163H168.183C172.087 163 175.08 162.024 177.162 160.072C179.245 158.055 180.286 154.996 180.286 150.897V62.0772C180.286 58.0428 179.245 55.0496 177.162 53.0976C175.08 51.0804 172.087 50.0718 168.183 50.0718H34.5626C30.7235 50.0718 27.7628 51.0804 25.6806 53.0976C23.5984 55.0496 22.5572 58.0428 22.5572 62.0772V150.897C22.5572 154.996 23.5984 158.055 25.6806 160.072C27.7628 162.024 30.7235 163 34.5626 163ZM82.8767 82.9645C81.1198 82.9645 79.8835 82.6391 79.1677 81.9884C78.452 81.2727 78.0941 80.0689 78.0941 78.3771V72.6184C78.0941 70.8615 78.452 69.6578 79.1677 69.0071C79.8835 68.3564 81.1198 68.031 82.8767 68.031H88.5378C90.2946 68.031 91.531 68.3564 92.2467 69.0071C92.9625 69.6578 93.3204 70.8615 93.3204 72.6184V78.3771C93.3204 80.0689 92.9625 81.2727 92.2467 81.9884C91.531 82.6391 90.2946 82.9645 88.5378 82.9645H82.8767ZM114.403 82.9645C112.646 82.9645 111.41 82.6391 110.694 81.9884C110.043 81.2727 109.718 80.0689 109.718 78.3771V72.6184C109.718 70.8615 110.043 69.6578 110.694 69.0071C111.41 68.3564 112.646 68.031 114.403 68.031H120.162C121.918 68.031 123.122 68.3564 123.773 69.0071C124.489 69.6578 124.847 70.8615 124.847 72.6184V78.3771C124.847 80.0689 124.489 81.2727 123.773 81.9884C123.122 82.6391 121.918 82.9645 120.162 82.9645H114.403ZM145.929 82.9645C144.172 82.9645 142.936 82.6391 142.22 81.9884C141.504 81.2727 141.146 80.0689 141.146 78.3771V72.6184C141.146 70.8615 141.504 69.6578 142.22 69.0071C142.936 68.3564 144.172 68.031 145.929 68.031H151.59C153.412 68.031 154.648 68.3564 155.299 69.0071C156.015 69.6578 156.373 70.8615 156.373 72.6184V78.3771C156.373 80.0689 156.015 81.2727 155.299 81.9884C154.648 82.6391 153.412 82.9645 151.59 82.9645H145.929ZM51.3505 114.003C49.5286 114.003 48.2597 113.677 47.5439 113.027C46.8933 112.311 46.5679 111.075 46.5679 109.318V103.657C46.5679 101.9 46.8933 100.696 47.5439 100.045C48.2597 99.3945 49.5286 99.0692 51.3505 99.0692H57.1092C58.866 99.0692 60.0698 99.3945 60.7205 100.045C61.3712 100.696 61.6966 101.9 61.6966 103.657V109.318C61.6966 111.075 61.3712 112.311 60.7205 113.027C60.0698 113.677 58.866 114.003 57.1092 114.003H51.3505ZM82.8767 114.003C81.1198 114.003 79.8835 113.677 79.1677 113.027C78.452 112.311 78.0941 111.075 78.0941 109.318V103.657C78.0941 101.9 78.452 100.696 79.1677 100.045C79.8835 99.3945 81.1198 99.0692 82.8767 99.0692H88.5378C90.2946 99.0692 91.531 99.3945 92.2467 100.045C92.9625 100.696 93.3204 101.9 93.3204 103.657V109.318C93.3204 111.075 92.9625 112.311 92.2467 113.027C91.531 113.677 90.2946 114.003 88.5378 114.003H82.8767ZM114.403 114.003C112.646 114.003 111.41 113.677 110.694 113.027C110.043 112.311 109.718 111.075 109.718 109.318V103.657C109.718 101.9 110.043 100.696 110.694 100.045C111.41 99.3945 112.646 99.0692 114.403 99.0692H120.162C121.918 99.0692 123.122 99.3945 123.773 100.045C124.489 100.696 124.847 101.9 124.847 103.657V109.318C124.847 111.075 124.489 112.311 123.773 113.027C123.122 113.677 121.918 114.003 120.162 114.003H114.403ZM145.929 114.003C144.172 114.003 142.936 113.677 142.22 113.027C141.504 112.311 141.146 111.075 141.146 109.318V103.657C141.146 101.9 141.504 100.696 142.22 100.045C142.936 99.3945 144.172 99.0692 145.929 99.0692H151.59C153.412 99.0692 154.648 99.3945 155.299 100.045C156.015 100.696 156.373 101.9 156.373 103.657V109.318C156.373 111.075 156.015 112.311 155.299 113.027C154.648 113.677 153.412 114.003 151.59 114.003H145.929ZM51.3505 145.041C49.5286 145.041 48.2597 144.715 47.5439 144.065C46.8933 143.414 46.5679 142.178 46.5679 140.356V134.695C46.5679 132.938 46.8933 131.734 47.5439 131.083C48.2597 130.433 49.5286 130.107 51.3505 130.107H57.1092C58.866 130.107 60.0698 130.433 60.7205 131.083C61.3712 131.734 61.6966 132.938 61.6966 134.695V140.356C61.6966 142.178 61.3712 143.414 60.7205 144.065C60.0698 144.715 58.866 145.041 57.1092 145.041H51.3505ZM82.8767 145.041C81.1198 145.041 79.8835 144.715 79.1677 144.065C78.452 143.414 78.0941 142.178 78.0941 140.356V134.695C78.0941 132.938 78.452 131.734 79.1677 131.083C79.8835 130.433 81.1198 130.107 82.8767 130.107H88.5378C90.2946 130.107 91.531 130.433 92.2467 131.083C92.9625 131.734 93.3204 132.938 93.3204 134.695V140.356C93.3204 142.178 92.9625 143.414 92.2467 144.065C91.531 144.715 90.2946 145.041 88.5378 145.041H82.8767ZM114.403 145.041C112.646 145.041 111.41 144.715 110.694 144.065C110.043 143.414 109.718 142.178 109.718 140.356V134.695C109.718 132.938 110.043 131.734 110.694 131.083C111.41 130.433 112.646 130.107 114.403 130.107H120.162C121.918 130.107 123.122 130.433 123.773 131.083C124.489 131.734 124.847 132.938 124.847 134.695V140.356C124.847 142.178 124.489 143.414 123.773 144.065C123.122 144.715 121.918 145.041 120.162 145.041H114.403Z" fill="#888888"/>
</svg>
