<svg width="218" height="209" viewBox="0 0 218 209" fill="none" xmlns="http://www.w3.org/2000/svg">
<path d="M63.6953 208.551C59.4635 208.551 56.1107 207.151 53.6367 204.352C51.2279 201.552 50.0234 197.809 50.0234 193.121V169.977H46.5078C37.263 169.977 29.2227 168.121 22.3867 164.41C15.5508 160.699 10.2448 155.361 6.46875 148.395C2.75781 141.428 0.902344 133.062 0.902344 123.297V46.832C0.902344 37.0664 2.72526 28.7005 6.37109 21.7344C10.082 14.7682 15.4206 9.42969 22.3867 5.71875C29.3529 1.94271 37.7513 0.0546875 47.582 0.0546875H171.215C181.111 0.0546875 189.542 1.94271 196.508 5.71875C203.474 9.42969 208.78 14.7682 212.426 21.7344C216.137 28.7005 217.992 37.0664 217.992 46.832V123.297C217.992 133.062 216.137 141.428 212.426 148.395C208.78 155.361 203.474 160.699 196.508 164.41C189.542 168.121 181.111 169.977 171.215 169.977H114.867L81.6641 199.273C78.0182 202.464 74.8607 204.807 72.1914 206.305C69.5221 207.802 66.6901 208.551 63.6953 208.551ZM69.0664 184.234L99.8281 153.863C102.042 151.65 104.092 150.185 105.98 149.469C107.868 148.688 110.375 148.297 113.5 148.297H170.336C179.06 148.297 185.57 146.116 189.867 141.754C194.164 137.392 196.312 130.914 196.312 122.32V47.7109C196.312 39.1823 194.164 32.737 189.867 28.375C185.57 24.013 179.06 21.832 170.336 21.832H48.5586C39.7695 21.832 33.2266 24.013 28.9297 28.375C24.6979 32.737 22.582 39.1823 22.582 47.7109V122.32C22.582 130.914 24.6979 137.392 28.9297 141.754C33.2266 146.116 39.7695 148.297 48.5586 148.297H60.668C63.4674 148.297 65.5508 148.948 66.918 150.25C68.3503 151.487 69.0664 153.635 69.0664 156.695V184.234ZM60.1797 60.2109C58.4219 60.2109 56.9245 59.5924 55.6875 58.3555C54.5156 57.0534 53.9297 55.556 53.9297 53.8633C53.9297 52.1055 54.5156 50.6081 55.6875 49.3711C56.9245 48.1341 58.4219 47.5156 60.1797 47.5156H157.836C159.594 47.5156 161.091 48.1341 162.328 49.3711C163.565 50.6081 164.184 52.1055 164.184 53.8633C164.184 55.556 163.565 57.0534 162.328 58.3555C161.091 59.5924 159.594 60.2109 157.836 60.2109H60.1797ZM60.1797 90.7773C58.4219 90.7773 56.9245 90.1589 55.6875 88.9219C54.5156 87.6849 53.9297 86.1875 53.9297 84.4297C53.9297 82.737 54.5156 81.2396 55.6875 79.9375C56.9245 78.6354 58.4219 77.9844 60.1797 77.9844H157.836C159.594 77.9844 161.091 78.6354 162.328 79.9375C163.565 81.1745 164.184 82.6719 164.184 84.4297C164.184 86.1875 163.565 87.6849 162.328 88.9219C161.091 90.1589 159.594 90.7773 157.836 90.7773H60.1797ZM60.1797 121.441C58.4219 121.441 56.9245 120.823 55.6875 119.586C54.5156 118.284 53.9297 116.786 53.9297 115.094C53.9297 113.336 54.5156 111.839 55.6875 110.602C56.9245 109.299 58.4219 108.648 60.1797 108.648H123.852C125.609 108.648 127.107 109.267 128.344 110.504C129.581 111.741 130.199 113.271 130.199 115.094C130.199 116.786 129.581 118.284 128.344 119.586C127.107 120.823 125.609 121.441 123.852 121.441H60.1797Z" fill="#FDC35D"/>
</svg>
