<svg width="177" height="172" viewBox="0 0 177 172" fill="none" xmlns="http://www.w3.org/2000/svg">
<path d="M68.7734 171.285C63.5651 171.285 59.138 169.039 55.4922 164.547L4.90625 102.242C3.47396 100.549 2.43229 98.8893 1.78125 97.2617C1.19531 95.6341 0.902344 93.9414 0.902344 92.1836C0.902344 88.2773 2.20443 85.0547 4.80859 82.5156C7.41276 79.9766 10.7005 78.707 14.6719 78.707C19.1641 78.707 22.9401 80.6276 26 84.4688L68.3828 138.18L151.098 7.125C152.79 4.52083 154.548 2.69792 156.371 1.65625C158.194 0.549479 160.473 -0.00390625 163.207 -0.00390625C167.178 -0.00390625 170.434 1.23307 172.973 3.70703C175.512 6.18099 176.781 9.33854 176.781 13.1797C176.781 14.7422 176.521 16.3047 176 17.8672C175.479 19.4297 174.665 21.0573 173.559 22.75L82.1523 164.156C79.0273 168.909 74.5677 171.285 68.7734 171.285Z" fill="#888888"/>
</svg>
