<svg width="78" height="94" viewBox="0 0 78 94" fill="none" xmlns="http://www.w3.org/2000/svg">
<path d="M38.8301 0.261719C40.6204 0.261719 42.069 0.83138 43.1758 1.9707C44.3151 3.11003 44.8848 4.60742 44.8848 6.46289V64.373L44.25 81.3164L40.6367 79.2656L56.0664 61.834L67.1016 50.8965C67.6549 50.3431 68.2897 49.9036 69.0059 49.5781C69.7546 49.2526 70.5684 49.0898 71.4473 49.0898C73.1074 49.0898 74.4909 49.6432 75.5977 50.75C76.7044 51.8568 77.2578 53.2565 77.2578 54.9492C77.2578 56.5768 76.623 58.0417 75.3535 59.3438L43.3711 91.4238C42.7852 92.0098 42.0853 92.4655 41.2715 92.791C40.4902 93.1165 39.6764 93.2793 38.8301 93.2793C38.0163 93.2793 37.2025 93.1165 36.3887 92.791C35.6074 92.4655 34.9238 92.0098 34.3379 91.4238L2.35547 59.3438C1.08594 58.0417 0.451172 56.5768 0.451172 54.9492C0.451172 53.2565 1.00456 51.8568 2.11133 50.75C3.2181 49.6432 4.60156 49.0898 6.26172 49.0898C7.14062 49.0898 7.93815 49.2526 8.6543 49.5781C9.37044 49.9036 10.0052 50.3431 10.5586 50.8965L21.5938 61.834L36.9746 79.2656L33.4102 81.3164L32.7754 64.373V6.46289C32.7754 4.60742 33.3288 3.11003 34.4355 1.9707C35.5749 0.83138 37.0397 0.261719 38.8301 0.261719Z" fill="#888888"/>
</svg>
