<svg width="177" height="104" viewBox="0 0 177 104" fill="none" xmlns="http://www.w3.org/2000/svg">
<path d="M88.6953 103.18C84.8542 103.18 81.3385 101.617 78.1484 98.4922L4.61328 23.2969C3.3763 21.9948 2.43229 20.5951 1.78125 19.0977C1.19531 17.6003 0.902344 15.9401 0.902344 14.1172C0.902344 11.7083 1.48828 9.49479 2.66016 7.47656C3.83203 5.45833 5.39453 3.86328 7.34766 2.69141C9.36589 1.51953 11.5794 0.933594 13.9883 0.933594C17.6341 0.933594 20.8242 2.26823 23.5586 4.9375L93.1875 76.4219H84.3008L153.734 4.9375C156.469 2.26823 159.659 0.933594 163.305 0.933594C165.714 0.933594 167.895 1.51953 169.848 2.69141C171.866 3.86328 173.461 5.45833 174.633 7.47656C175.805 9.49479 176.391 11.7083 176.391 14.1172C176.391 17.6979 175.121 20.7253 172.582 23.1992L99.2422 98.4922C97.6797 100.055 96.0195 101.227 94.2617 102.008C92.569 102.724 90.7135 103.115 88.6953 103.18Z" fill="#888888"/>
</svg>
