<svg width="105" height="106" viewBox="0 0 105 106" fill="none" xmlns="http://www.w3.org/2000/svg">
<path d="M52.4504 105.561C45.2772 105.561 38.5336 104.189 32.2199 101.446C25.9061 98.7351 20.3361 94.9667 15.5098 90.1404C10.6836 85.3473 6.89861 79.7938 4.15492 73.48C1.44429 67.1662 0.088975 60.4062 0.088975 53.1998C0.088975 46.0266 1.44429 39.2831 4.15492 32.9693C6.89861 26.6555 10.667 21.0855 15.4602 16.2592C20.2865 11.433 25.8565 7.66457 32.1703 4.95394C38.5171 2.21025 45.2772 0.838407 52.4504 0.838407C59.6237 0.838407 66.3672 2.21025 72.681 4.95394C79.0278 7.66457 84.5978 11.433 89.391 16.2592C94.2173 21.0855 98.0022 26.6555 100.746 32.9693C103.49 39.2831 104.861 46.0266 104.861 53.1998C104.861 60.4062 103.49 67.1662 100.746 73.48C98.0022 79.7938 94.2173 85.3473 89.391 90.1404C84.5978 94.9667 79.0443 98.7351 72.7306 101.446C66.4168 104.189 59.6567 105.561 52.4504 105.561ZM52.5 60.588C56.037 60.588 57.9047 58.7699 58.1031 55.1337L58.946 33.7626C59.0121 31.9115 58.4336 30.4074 57.2105 29.2504C55.9875 28.0604 54.4007 27.4654 52.4504 27.4654C50.467 27.4654 48.8638 28.0439 47.6407 29.2009C46.4507 30.3578 45.9052 31.8619 46.0044 33.7131L46.7978 55.1832C46.9961 58.7864 48.8968 60.588 52.5 60.588ZM52.5 78.5376C54.4834 78.5376 56.1362 77.9591 57.4585 76.8022C58.8138 75.6452 59.4914 74.1246 59.4914 72.2404C59.4914 70.3562 58.8138 68.8356 57.4585 67.6786C56.1362 66.5216 54.4834 65.9431 52.5 65.9431C50.5166 65.9431 48.8473 66.5216 47.4919 67.6786C46.1366 68.8356 45.459 70.3562 45.459 72.2404C45.459 74.1246 46.1366 75.6452 47.4919 76.8022C48.8803 77.9591 50.5497 78.5376 52.5 78.5376Z" fill="#E35E69"/>
</svg>
