<svg width="201" height="187" viewBox="0 0 201 187" fill="none" xmlns="http://www.w3.org/2000/svg">
<path d="M0.902344 63.1484C0.902344 53.9036 2.36719 45.4727 5.29688 37.8555C8.29167 30.2383 12.4258 23.6628 17.6992 18.1289C23.0378 12.5951 29.1901 8.36328 36.1562 5.43359C43.1224 2.4388 50.6419 0.941406 58.7148 0.941406C68.1549 0.941406 76.4557 2.89453 83.6172 6.80078C90.7786 10.6419 96.5078 15.7201 100.805 22.0352C105.167 15.7201 110.896 10.6419 117.992 6.80078C125.154 2.89453 133.454 0.941406 142.895 0.941406C150.967 0.941406 158.487 2.4388 165.453 5.43359C172.484 8.36328 178.637 12.5951 183.91 18.1289C189.184 23.6628 193.285 30.2383 196.215 37.8555C199.21 45.4727 200.707 53.9036 200.707 63.1484C200.707 77.0807 197.029 90.9154 189.672 104.652C182.315 118.324 171.931 131.638 158.52 144.594C145.173 157.484 129.483 169.789 111.449 181.508C109.626 182.68 107.738 183.721 105.785 184.633C103.897 185.609 102.237 186.098 100.805 186.098C99.4375 186.098 97.7773 185.609 95.8242 184.633C93.8711 183.721 92.0156 182.68 90.2578 181.508C72.1589 169.789 56.4036 157.484 42.9922 144.594C29.6458 131.638 19.2943 118.324 11.9375 104.652C4.58073 90.9154 0.902344 77.0807 0.902344 63.1484ZM23.5586 63.0508C23.5586 71.319 25.5117 79.8151 29.418 88.5391C33.3893 97.1979 38.8581 105.792 45.8242 114.32C52.7904 122.784 60.8307 130.987 69.9453 138.93C79.0599 146.872 88.793 154.262 99.1445 161.098C99.9909 161.749 100.544 162.074 100.805 162.074C101.065 162.074 101.651 161.749 102.562 161.098C112.849 154.262 122.549 146.872 131.664 138.93C140.779 130.987 148.819 122.784 155.785 114.32C162.751 105.792 168.188 97.1979 172.094 88.5391C176.065 79.8151 178.051 71.319 178.051 63.0508C178.051 55.043 176.423 48.0443 173.168 42.0547C169.978 36.0651 165.583 31.4102 159.984 28.0898C154.385 24.7044 148.038 23.0117 140.941 23.0117C135.212 23.0117 130.329 23.9883 126.293 25.9414C122.257 27.8294 118.773 30.2708 115.844 33.2656C112.914 36.1953 110.375 39.1576 108.227 42.1523C106.794 44.0404 105.525 45.4076 104.418 46.2539C103.376 47.1003 102.172 47.5234 100.805 47.5234C99.4375 47.5234 98.2005 47.1328 97.0938 46.3516C95.987 45.5052 94.7174 44.1055 93.2852 42.1523C91.2669 39.1576 88.793 36.1953 85.8633 33.2656C82.9987 30.3359 79.5156 27.8945 75.4141 25.9414C71.3125 23.9883 66.3971 23.0117 60.668 23.0117C53.5716 23.0117 47.224 24.7044 41.625 28.0898C36.026 31.4102 31.599 36.0651 28.3438 42.0547C25.1536 48.0443 23.5586 55.043 23.5586 63.0508Z" fill="#888888"/>
</svg>
