<svg width="137" height="215" viewBox="0 0 137 215" fill="none" xmlns="http://www.w3.org/2000/svg">
<path d="M12.7305 214.719C8.82422 214.719 5.73177 213.449 3.45312 210.91C1.23958 208.436 0.132812 205.018 0.132812 200.656V30.3438C0.132812 20.6432 2.60677 13.2865 7.55469 8.27344C12.5026 3.26042 19.7943 0.753906 29.4297 0.753906H107.066C116.702 0.753906 123.993 3.26042 128.941 8.27344C133.889 13.2865 136.363 20.6432 136.363 30.3438V200.656C136.363 205.018 135.224 208.436 132.945 210.91C130.732 213.449 127.704 214.719 123.863 214.719C121.194 214.719 118.753 213.905 116.539 212.277C114.326 210.715 111.103 207.883 106.871 203.781L69.0781 166.477C68.5573 165.891 68.0039 165.891 67.418 166.477L29.7227 203.781C25.4909 207.883 22.2357 210.715 19.957 212.277C17.7435 213.905 15.3346 214.719 12.7305 214.719ZM22.0078 182.883L61.8516 144.211C63.9349 142.258 66.0833 141.281 68.2969 141.281C70.5104 141.281 72.6263 142.258 74.6445 144.211L114.586 182.883C115.237 183.534 115.855 183.762 116.441 183.566C117.092 183.436 117.418 182.883 117.418 181.906V31.418C117.418 27.4466 116.409 24.5169 114.391 22.6289C112.438 20.6758 109.508 19.6992 105.602 19.6992H30.9922C27.0208 19.6992 24.026 20.6758 22.0078 22.6289C20.0547 24.5169 19.0781 27.4466 19.0781 31.418V181.906C19.0781 182.883 19.3711 183.436 19.957 183.566C20.6081 183.762 21.2917 183.534 22.0078 182.883Z" fill="#888888"/>
</svg>
