<svg width="154" height="172" viewBox="0 0 154 172" fill="none" xmlns="http://www.w3.org/2000/svg">
<path d="M14.3789 171.039C10.4727 171.039 7.25 169.607 4.71094 166.742C2.17188 163.878 0.902344 160.036 0.902344 155.219V15.9609C0.902344 11.1432 2.17188 7.33464 4.71094 4.53516C7.25 1.67057 10.4727 0.238281 14.3789 0.238281C16.4622 0.238281 18.4479 0.596354 20.3359 1.3125C22.2891 2.02865 24.3724 3.00521 26.5859 4.24219L141.723 70.9414C145.954 73.3503 148.982 75.6289 150.805 77.7773C152.628 79.9258 153.539 82.5299 153.539 85.5898C153.539 88.6497 152.628 91.2539 150.805 93.4023C148.982 95.5508 145.954 97.862 141.723 100.336L26.5859 166.938C24.3724 168.24 22.2891 169.249 20.3359 169.965C18.4479 170.681 16.4622 171.039 14.3789 171.039ZM21.5078 147.211C21.8333 147.211 22.224 147.081 22.6797 146.82L126.684 86.6641C126.879 86.5339 127.042 86.4036 127.172 86.2734C127.367 86.0781 127.465 85.8503 127.465 85.5898C127.465 85.3294 127.367 85.1341 127.172 85.0039C127.042 84.8086 126.879 84.6784 126.684 84.6133L22.6797 24.457C22.224 24.1315 21.8333 23.9688 21.5078 23.9688C20.9219 23.9688 20.6289 24.3594 20.6289 25.1406V146.039C20.6289 146.82 20.9219 147.211 21.5078 147.211Z" fill="#888888"/>
</svg>
