<svg width="158" height="175" viewBox="0 0 158 175" fill="none" xmlns="http://www.w3.org/2000/svg">
<path d="M15.7461 174.992C11.5143 174.992 7.96615 173.462 5.10156 170.402C2.30208 167.408 0.902344 163.273 0.902344 158V17.1797C0.902344 11.9714 2.30208 7.86979 5.10156 4.875C7.96615 1.8151 11.5143 0.285156 15.7461 0.285156C17.8945 0.285156 19.9779 0.643229 21.9961 1.35938C24.0143 2.07552 26.2279 3.11719 28.6367 4.48438L144.652 71.7695C149.014 74.2435 152.204 76.6849 154.223 79.0938C156.241 81.4375 157.25 84.2695 157.25 87.5898C157.25 90.9753 156.241 93.8398 154.223 96.1836C152.204 98.5273 149.014 100.969 144.652 103.508L28.6367 170.695C26.2279 172.128 24.0143 173.202 21.9961 173.918C19.9779 174.634 17.8945 174.992 15.7461 174.992ZM24.3398 147.355C24.6003 147.355 24.9909 147.225 25.5117 146.965L126.488 88.5664C126.684 88.4362 126.846 88.306 126.977 88.1758C127.172 88.0456 127.27 87.8503 127.27 87.5898C127.27 87.3294 127.172 87.1341 126.977 87.0039C126.846 86.8737 126.684 86.7435 126.488 86.6133L25.5117 28.2148C24.9909 27.9544 24.6003 27.8242 24.3398 27.8242C23.7539 27.8242 23.4609 28.1823 23.4609 28.8984V146.281C23.4609 146.997 23.7539 147.355 24.3398 147.355Z" fill="#888888"/>
</svg>
