<svg width="94" height="78" viewBox="0 0 94 78" fill="none" xmlns="http://www.w3.org/2000/svg">
<path d="M93.9082 38.6484C93.9082 40.4062 93.2734 41.9036 92.0039 43.1406L59.9238 75.123C58.6543 76.3926 57.2383 77.0273 55.6758 77.0273C53.8854 77.0273 52.4368 76.474 51.3301 75.3672C50.2233 74.2604 49.6699 72.8932 49.6699 71.2656C49.6699 70.3542 49.8327 69.5404 50.1582 68.8242C50.5163 68.1081 50.972 67.4733 51.5254 66.9199L62.4629 55.8848L79.7969 40.0645L82.043 43.7266L64.2695 44.752H6.65234C4.79688 44.752 3.29948 44.1986 2.16016 43.0918C1.02083 41.9525 0.451172 40.4714 0.451172 38.6484C0.451172 36.8581 1.02083 35.4095 2.16016 34.3027C3.29948 33.1634 4.79688 32.5938 6.65234 32.5938H64.2695L82.043 33.5703L79.7969 37.3301L62.4629 21.4121L51.5254 10.377C50.972 9.82357 50.5163 9.1888 50.1582 8.47266C49.8327 7.72396 49.6699 6.91016 49.6699 6.03125C49.6699 4.40365 50.2233 3.03646 51.3301 1.92969C52.4368 0.822917 53.8854 0.269531 55.6758 0.269531C56.4245 0.269531 57.1569 0.432292 57.873 0.757812C58.6217 1.05078 59.3379 1.53906 60.0215 2.22266L92.0039 34.1562C93.2734 35.3932 93.9082 36.8906 93.9082 38.6484Z" fill="#888888"/>
</svg>
