<svg width="140" height="218" viewBox="0 0 140 218" fill="none" xmlns="http://www.w3.org/2000/svg">
<path d="M14.293 217.574C9.99609 217.574 6.54557 216.174 3.94141 213.375C1.40234 210.576 0.132812 206.799 0.132812 202.047V31.1484C0.132812 21.1224 2.73698 13.4727 7.94531 8.19922C13.1536 2.92578 20.7057 0.289062 30.6016 0.289062H109.215C119.111 0.289062 126.663 2.92578 131.871 8.19922C137.145 13.4727 139.781 21.1224 139.781 31.1484V202.047C139.781 206.799 138.479 210.576 135.875 213.375C133.336 216.174 129.885 217.574 125.523 217.574C122.659 217.574 120.055 216.793 117.711 215.23C115.432 213.668 112.242 210.901 108.141 206.93L70.7383 169.82C70.2174 169.234 69.6641 169.234 69.0781 169.82L31.7734 206.93C27.6719 210.901 24.4167 213.668 22.0078 215.23C19.6641 216.793 17.0924 217.574 14.293 217.574ZM24.5469 181.93L62.6328 144.918C65.0417 142.639 67.4831 141.5 69.957 141.5C72.431 141.5 74.8398 142.639 77.1836 144.918L115.367 181.93C116.018 182.516 116.637 182.711 117.223 182.516C117.874 182.385 118.199 181.865 118.199 180.953V32.8086C118.199 29.0977 117.288 26.3633 115.465 24.6055C113.642 22.7826 110.908 21.8711 107.262 21.8711H32.75C28.974 21.8711 26.1745 22.7826 24.3516 24.6055C22.5938 26.3633 21.7148 29.0977 21.7148 32.8086V180.953C21.7148 181.865 22.0078 182.385 22.5938 182.516C23.1797 182.711 23.8307 182.516 24.5469 181.93Z" fill="#888888"/>
</svg>
