<svg width="213" height="185" viewBox="0 0 213 185" fill="none" xmlns="http://www.w3.org/2000/svg">
<path d="M114.207 184.289C110.105 184.289 106.688 182.922 103.953 180.188C101.219 177.518 99.8516 174.133 99.8516 170.031V136.438H97.7031C86.2448 136.438 76.2188 137.74 67.625 140.344C59.0312 142.883 51.5443 146.919 45.1641 152.453C38.7839 157.922 33.2174 165.083 28.4648 173.938C26.4466 177.779 24.168 180.35 21.6289 181.652C19.1549 182.954 16.4857 183.605 13.6211 183.605C9.71484 183.605 6.52474 181.75 4.05078 178.039C1.57682 174.328 0.339844 168.794 0.339844 161.438C0.339844 143.924 2.32552 128.234 6.29688 114.367C10.2682 100.5 16.2578 88.7161 24.2656 79.0156C32.3385 69.25 42.4948 61.8281 54.7344 56.75C66.974 51.6068 81.2969 49.0352 97.7031 49.0352H99.8516V15.3438C99.8516 11.3073 101.219 7.88932 103.953 5.08984C106.688 2.22526 110.138 0.792969 114.305 0.792969C117.039 0.792969 119.546 1.37891 121.824 2.55078C124.103 3.72266 126.707 5.67578 129.637 8.41016L207.176 80.4805C209.129 82.3034 210.529 84.2891 211.375 86.4375C212.221 88.5208 212.645 90.5391 212.645 92.4922C212.645 94.3802 212.221 96.3984 211.375 98.5469C210.529 100.695 209.129 102.681 207.176 104.504L129.637 177.062C126.967 179.602 124.428 181.424 122.02 182.531C119.611 183.703 117.007 184.289 114.207 184.289ZM120.75 156.555C121.271 156.555 121.792 156.262 122.312 155.676L187.449 94.3477C187.775 93.957 188.003 93.6315 188.133 93.3711C188.263 93.0456 188.328 92.7526 188.328 92.4922C188.328 91.9714 188.035 91.3854 187.449 90.7344L122.41 28.7227C122.15 28.5273 121.857 28.3646 121.531 28.2344C121.271 28.1042 121.01 28.0391 120.75 28.0391C119.708 28.0391 119.188 28.5273 119.188 29.5039V65.3438C119.188 67.4271 118.146 68.4688 116.062 68.4688H103.953C91.7786 68.4688 81.069 69.9336 71.8242 72.8633C62.6445 75.7279 54.7344 79.7969 48.0938 85.0703C41.5182 90.3438 36.082 96.5612 31.7852 103.723C27.5534 110.884 24.3958 118.729 22.3125 127.258C20.2292 135.721 19.0247 144.608 18.6992 153.918C18.6992 154.569 18.9271 154.895 19.3828 154.895C19.5781 154.895 19.7409 154.829 19.8711 154.699C20.0013 154.504 20.1315 154.243 20.2617 153.918C26.2513 141.874 36.2122 132.661 50.1445 126.281C64.0768 119.836 82.013 116.613 103.953 116.613H116.062C118.146 116.613 119.188 117.688 119.188 119.836V154.895C119.188 156.001 119.708 156.555 120.75 156.555Z" fill="#888888"/>
</svg>
