<svg width="178" height="193" viewBox="0 0 178 193" fill="none" xmlns="http://www.w3.org/2000/svg">
<path d="M38.0117 192.391C34.6914 192.391 32.0547 191.512 30.1016 189.754C28.1484 187.996 27.1719 185.555 27.1719 182.43C27.1719 181.844 27.2044 181.16 27.2695 180.379C27.3346 179.663 27.4648 178.979 27.6602 178.328L61.0586 11.5312C61.7096 8.08073 63.0443 5.41146 65.0625 3.52344C67.1458 1.63542 70.0104 0.691406 73.6562 0.691406C76.9766 0.691406 79.6133 1.60286 81.5664 3.42578C83.5846 5.2487 84.5938 7.6901 84.5938 10.75C84.5938 11.4661 84.5286 12.2148 84.3984 12.9961C84.3333 13.7773 84.2357 14.4284 84.1055 14.9492L50.707 181.746C49.3398 188.842 45.1081 192.391 38.0117 192.391ZM101.684 192.391C98.4284 192.391 95.8242 191.512 93.8711 189.754C91.918 187.996 90.9414 185.555 90.9414 182.43C90.9414 181.844 90.974 181.16 91.0391 180.379C91.1693 179.663 91.2669 178.979 91.332 178.328L124.828 11.5312C125.544 8.08073 126.879 5.41146 128.832 3.52344C130.85 1.63542 133.747 0.691406 137.523 0.691406C140.714 0.691406 143.318 1.60286 145.336 3.42578C147.354 5.2487 148.363 7.6901 148.363 10.75C148.363 11.4661 148.298 12.2148 148.168 12.9961C148.103 13.7773 148.038 14.4284 147.973 14.9492L114.477 181.746C113.109 188.842 108.845 192.391 101.684 192.391ZM24.2422 72.957C21.0521 72.957 18.4805 72.0456 16.5273 70.2227C14.6393 68.3346 13.6953 65.8607 13.6953 62.8008C13.6953 58.9596 14.8672 55.8672 17.2109 53.5234C19.5547 51.1146 22.7122 49.9102 26.6836 49.9102H166.82C170.076 49.9102 172.647 50.8867 174.535 52.8398C176.488 54.793 177.465 57.2669 177.465 60.2617C177.465 64.0378 176.293 67.0977 173.949 69.4414C171.605 71.7852 168.448 72.957 164.477 72.957H24.2422ZM11.5469 139.168C8.22656 139.168 5.6224 138.257 3.73438 136.434C1.84635 134.546 0.902344 132.072 0.902344 129.012C0.902344 125.236 2.07422 122.176 4.41797 119.832C6.82682 117.423 10.0169 116.219 13.9883 116.219H154.027C157.283 116.219 159.854 117.195 161.742 119.148C163.695 121.102 164.672 123.576 164.672 126.57C164.672 130.346 163.467 133.406 161.059 135.75C158.715 138.029 155.557 139.168 151.586 139.168H11.5469Z" fill="#888888"/>
</svg>
