<svg width="205" height="205" viewBox="0 0 205 205" fill="none" xmlns="http://www.w3.org/2000/svg">
<path d="M54.2891 115.773C51.8802 115.773 49.8294 114.96 48.1367 113.332C46.5091 111.704 45.6953 109.686 45.6953 107.277C45.6953 104.934 46.5091 102.948 48.1367 101.32C49.8294 99.6927 51.8802 98.8789 54.2891 98.8789H93.8398V44.7773C93.8398 42.3685 94.6536 40.3503 96.2812 38.7227C97.9089 37.0951 99.8945 36.2812 102.238 36.2812C104.647 36.2812 106.665 37.0951 108.293 38.7227C109.921 40.3503 110.734 42.3685 110.734 44.7773V107.277C110.734 109.686 109.921 111.704 108.293 113.332C106.665 114.96 104.647 115.773 102.238 115.773H54.2891ZM102.336 204.348C88.4036 204.348 75.2852 201.678 62.9805 196.34C50.6758 191.066 39.8359 183.742 30.4609 174.367C21.0859 164.992 13.7292 154.185 8.39062 141.945C3.11719 129.641 0.480469 116.49 0.480469 102.492C0.480469 88.5599 3.11719 75.474 8.39062 63.2344C13.7292 50.9297 21.0534 40.0898 30.3633 30.7148C39.7383 21.3398 50.5781 14.0156 62.8828 8.74219C75.1875 3.40365 88.306 0.734375 102.238 0.734375C116.171 0.734375 129.289 3.40365 141.594 8.74219C153.964 14.0156 164.803 21.3398 174.113 30.7148C183.488 40.0898 190.845 50.9297 196.184 63.2344C201.522 75.474 204.191 88.5599 204.191 102.492C204.191 116.49 201.522 129.641 196.184 141.945C190.845 154.185 183.488 164.992 174.113 174.367C164.803 183.742 153.996 191.066 141.691 196.34C129.387 201.678 116.268 204.348 102.336 204.348ZM102.336 181.984C113.339 181.984 123.625 179.934 133.195 175.832C142.831 171.73 151.294 166.066 158.586 158.84C165.878 151.548 171.574 143.117 175.676 133.547C179.777 123.911 181.828 113.56 181.828 102.492C181.828 91.4896 179.745 81.2031 175.578 71.6328C171.477 61.9974 165.78 53.5339 158.488 46.2422C151.262 38.9505 142.831 33.2539 133.195 29.1523C123.625 25.0508 113.306 23 102.238 23C91.2357 23 80.9167 25.0508 71.2812 29.1523C61.7109 33.2539 53.2799 38.9505 45.9883 46.2422C38.7617 53.5339 33.0977 61.9974 28.9961 71.6328C24.9596 81.2031 22.9414 91.4896 22.9414 102.492C22.9414 113.56 24.9596 123.911 28.9961 133.547C33.0977 143.117 38.7943 151.548 46.0859 158.84C53.3776 166.066 61.8086 171.73 71.3789 175.832C81.0143 179.934 91.3333 181.984 102.336 181.984Z" fill="#888888"/>
</svg>
