<svg width="132" height="132" viewBox="0 0 132 132" fill="none" xmlns="http://www.w3.org/2000/svg">
<circle cx="66" cy="66" r="66" fill="#FFF2D0"/>
<ellipse cx="66.3047" cy="69.9048" rx="35.0625" ry="35.53" fill="white"/>
<path d="M67.0556 116.63C60.3486 116.63 54.0434 115.347 48.14 112.782C42.2366 110.247 37.0287 106.724 32.5161 102.211C28.0036 97.7296 24.4647 92.5371 21.8993 86.6337C19.3649 80.7304 18.0977 74.4097 18.0977 67.6718C18.0977 60.9648 19.3649 54.6596 21.8993 48.7562C24.4647 42.8529 27.9882 37.6449 32.4698 33.1324C36.9823 28.6198 42.1903 25.0963 48.0937 22.5619C54.028 19.9965 60.3486 18.7139 67.0556 18.7139C73.7626 18.7139 80.0678 19.9965 85.9712 22.5619C91.9055 25.0963 97.1134 28.6198 101.595 33.1324C106.108 37.6449 109.647 42.8529 112.212 48.7562C114.777 54.6596 116.06 60.9648 116.06 67.6718C116.06 74.4097 114.777 80.7304 112.212 86.6337C109.647 92.5371 106.108 97.7296 101.595 102.211C97.1134 106.724 91.9209 110.247 86.0175 112.782C80.1142 115.347 73.7935 116.63 67.0556 116.63ZM67.102 74.5797C70.4091 74.5797 72.1554 72.8798 72.3408 69.4799L73.129 49.498C73.1908 47.7672 72.6499 46.3609 71.5063 45.2791C70.3627 44.1664 68.8792 43.6101 67.0556 43.6101C65.2011 43.6101 63.7021 44.151 62.5585 45.2328C61.4458 46.3145 60.9359 47.7208 61.0286 49.4517L61.7704 69.5263C61.9558 72.8952 63.733 74.5797 67.102 74.5797ZM67.102 91.3626C68.9564 91.3626 70.5018 90.8218 71.7381 89.74C73.0054 88.6582 73.639 87.2364 73.639 85.4747C73.639 83.713 73.0054 82.2912 71.7381 81.2094C70.5018 80.1277 68.9564 79.5868 67.102 79.5868C65.2475 79.5868 63.6867 80.1277 62.4194 81.2094C61.1522 82.2912 60.5186 83.713 60.5186 85.4747C60.5186 87.2364 61.1522 88.6582 62.4194 89.74C63.7176 90.8218 65.2784 91.3626 67.102 91.3626Z" fill="#FFDC80"/>
<rect x="45" y="34" width="43" height="62" fill="#FFDC80"/>
</svg>
